# SSTK version 0.8.0
# 41
mtllib original-41.mtl
o DF_12_BC1/DF_12_BC/mesh29/mesh29-geometry#mesh29-geometry
v 0.284969 0.460755 0.514610
v -0.281559 0.460755 0.511881
v -0.281559 0.460755 0.514610
v 0.284969 0.460755 0.511881
v -0.281559 0.389257 0.514610
v 0.284969 0.464625 0.510630
v 0.284969 0.389257 0.514610
v -0.281559 0.464625 0.510630
v -0.281559 0.388446 0.514387
v 0.284969 0.467757 0.508035
v 0.284969 0.388446 0.514387
v -0.281559 0.467757 0.508035
v 0.284969 0.387862 0.513781
v -0.281559 0.469705 0.504464
v -0.281559 0.387862 0.513781
v 0.284969 0.469705 0.504464
v 0.284969 0.387670 0.512962
v -0.281559 0.470192 0.500426
v -0.281559 0.387670 0.512962
v 0.284969 0.470192 0.500426
v 0.284969 0.387670 0.510514
v -0.281559 0.470192 0.498042
v -0.281559 0.387670 0.510514
v 0.284969 0.470192 0.498042
v -0.281559 0.382319 0.509192
v 0.284969 0.471553 0.498042
v 0.284969 0.382319 0.509192
v -0.281559 0.471553 0.498042
v -0.281559 0.377965 0.505812
v 0.284969 0.377965 0.505812
v 0.284969 0.375357 0.500956
v -0.281559 0.375357 0.500956
v -0.281559 0.374945 0.495460
v 0.284969 0.374945 0.495460
v 0.284969 0.374945 0.487316
v -0.281559 0.374945 0.487316
v 0.284969 0.374949 0.485674
v -0.281559 0.374949 0.485674
v 0.284969 0.375534 0.484140
v -0.281559 0.375534 0.484140
v 0.284969 0.376624 0.482913
v -0.281559 0.376624 0.482913
v -0.281559 0.378078 0.482151
v 0.284969 0.378078 0.482151
v -0.281559 0.379708 0.481954
v 0.284969 0.379708 0.481954
v -0.281559 0.470192 0.481954
v 0.284969 0.470192 0.481954
v 0.284969 0.470192 0.486795
v -0.281559 0.470192 0.486795
v -0.281559 0.471553 0.486795
v 0.284969 0.471553 0.486795
vt -0.025741 0.808194
vt -0.025741 0.287126
vt 0.008469 0.287126
vt -0.027593 0.808194
vt 0.008469 0.808194
vt -0.027593 0.287126
vt 0.008857 0.287126
vt -0.029091 0.808194
vt 0.008857 0.808194
vt -0.029091 0.287126
vt 0.009136 0.808194
vt -0.030023 0.287126
vt 0.009136 0.287126
vt -0.030023 0.808194
vt 0.009228 0.808194
vt -0.030256 0.287126
vt 0.009228 0.287126
vt -0.030256 0.808194
vt 0.011789 0.287126
vt -0.030907 0.808194
vt 0.011789 0.808194
vt -0.030907 0.287126
vt 0.013872 0.287126
vt 0.013872 0.808194
vt 0.01512 0.808194
vt 0.01512 0.287126
vt 0.015317 0.287126
vt 0.015317 0.808194
vt 0.015315 0.808194
vt 0.015315 0.287126
vt 0.015035 0.808194
vt 0.015035 0.287126
vt 0.014514 0.808194
vt 0.014514 0.287126
vt 0.013818 0.287126
vt 0.013818 0.808194
vt 0.013038 0.287126
vt 0.013038 0.808194
vn 0 1 0
vn 0 -0.1336090164314385 0.9910341218788704
vn 0 0 1
vn 0 0.48148786630215284 0.8764527566297001
vn 0 0.3075990241377576 0.9515160746668968
vn 0 -0.5107362628083497 0.85973744239306
vn 0 0.7718322552835606 0.6358262102995541
vn 0 -0.8781981109107202 0.4782970604058134
vn 0 0.9524214534017693 0.3047841450929842
vn 0 -0.9933549531603351 0.11509099457311424
vn 0 0.9981997002985706 0.05997798199209366
vn 0 -1 0
vn 0 -0.4360179781624764 0.8999379549275086
vn 0 -0.2398589385067724 0.9708077511116219
vn 0 -0.7637257763211732 0.6455408109350032
vn 0 -0.9599883063591972 0.2800400893686477
vn 0 -0.9992990646416606 0.03743500242155786
vn 0 -0.999999367186835 -0.0011250004130858244
vn 0 -0.9832544340282681 -0.18223808044355147
vn 0 -0.8549788298549548 -0.5186628967835006
vn 0 -0.6158659605362342 -0.7878509495156947
vn 0 -0.2969149752905881 -0.9549039205324217
vn 0 -0.12015698830427957 -0.9927549033682206
vn 0 0 -1
vn 0 0.1336090164314385 -0.9910341218788704
vn 0 -0.3075990241377576 -0.9515160746668968
vn 0 -0.48148786630215284 -0.8764527566297001
vn 0 0.5107362628083497 -0.85973744239306
vn 0 -0.7718322552835606 -0.6358262102995541
vn 0 0.8781981109107202 -0.4782970604058134
vn 0 -0.9524214534017693 -0.3047841450929842
vn 0 0.9933549531603351 -0.11509099457311424
vn 0 -0.9981997002985706 -0.05997798199209366
vn 0 0.2398589385067724 -0.9708077511116219
vn 0 0.4360179781624764 -0.8999379549275086
vn 0 0.7637257763211732 -0.6455408109350032
vn 0 0.9599883063591972 -0.2800400893686477
vn 0 0.9992990646416606 -0.03743500242155786
vn 0 0.999999367186835 0.0011250004130858244
vn 0 0.9832544340282681 0.18223808044355147
vn 0 0.8549788298549548 0.5186628967835006
vn 0 0.6158659605362342 0.7878509495156947
vn 0 0.2969149752905881 0.9549039205324217
vn 0 0.12015698830427957 0.9927549033682206
usemtl material_0_0
f 1/1/1 2/2/1 3/2/1
f 2/2/1 1/1/1 4/1/1
f 5/3/2 1/1/3 3/2/3
f 6/4/4 2/2/5 4/1/5
f 1/1/3 5/3/2 7/5/2
f 2/2/5 6/4/4 8/6/4
f 9/7/6 7/5/2 5/3/2
f 10/8/7 8/6/4 6/4/4
f 7/5/2 9/7/6 11/9/6
f 8/6/4 10/8/7 12/10/7
f 9/7/6 13/11/8 11/9/6
f 10/8/7 14/12/9 12/10/7
f 13/11/8 9/7/6 15/13/8
f 14/12/9 10/8/7 16/14/9
f 15/13/8 17/15/10 13/11/8
f 16/14/9 18/16/11 14/12/9
f 17/15/10 15/13/8 19/17/10
f 18/16/11 16/14/9 20/18/11
f 19/17/10 21/15/12 17/15/10
f 20/18/11 22/16/1 18/16/11
f 21/15/12 19/17/10 23/17/12
f 22/16/1 20/18/11 24/18/1
f 25/19/13 21/15/14 23/17/14
f 26/20/3 22/16/3 24/18/3
f 21/15/14 25/19/13 27/21/13
f 22/16/3 26/20/3 28/22/3
f 29/23/15 27/21/13 25/19/13
f 27/21/13 29/23/15 30/24/15
f 29/23/15 31/25/16 30/24/15
f 31/25/16 29/23/15 32/26/16
f 33/27/17 31/25/16 32/26/16
f 31/25/16 33/27/17 34/28/17
f 33/27/17 35/28/18 34/28/17
f 35/28/18 33/27/17 36/27/18
f 36/27/18 37/29/19 35/28/18
f 37/29/19 36/27/18 38/30/19
f 38/30/19 39/31/20 37/29/19
f 39/31/20 38/30/19 40/32/20
f 40/32/20 41/33/21 39/31/20
f 41/33/21 40/32/20 42/34/21
f 43/35/22 41/33/21 42/34/21
f 41/33/21 43/35/22 44/36/22
f 45/37/23 44/36/22 43/35/22
f 44/36/22 45/37/23 46/38/23
f 47/16/24 46/38/24 45/37/24
f 46/38/24 47/16/24 48/18/24
f 47/16/1 49/18/1 48/18/1
f 49/18/1 47/16/1 50/16/1
f 51/22/24 49/18/24 50/16/24
f 49/18/24 51/22/24 52/20/24
usemtl material_1_0
f 3//12 2//12 1//12
f 4//12 1//12 2//12
f 3//24 1//24 5//25
f 4//26 2//26 6//27
f 7//25 5//25 1//24
f 8//27 6//27 2//26
f 5//25 7//25 9//28
f 6//27 8//27 10//29
f 11//28 9//28 7//25
f 12//29 10//29 8//27
f 11//28 13//30 9//28
f 12//29 14//31 10//29
f 15//30 9//28 13//30
f 16//31 10//29 14//31
f 13//30 17//32 15//30
f 14//31 18//33 16//31
f 19//32 15//30 17//32
f 20//33 16//31 18//33
f 17//32 21//1 19//32
f 18//33 22//12 20//33
f 23//1 19//32 21//1
f 24//12 20//33 22//12
f 23//34 21//34 25//35
f 24//24 22//24 26//24
f 27//35 25//35 21//34
f 28//24 26//24 22//24
f 25//35 27//35 29//36
f 30//36 29//36 27//35
f 30//36 31//37 29//36
f 32//37 29//36 31//37
f 32//37 31//37 33//38
f 34//38 33//38 31//37
f 34//38 35//39 33//38
f 36//39 33//38 35//39
f 35//39 37//40 36//39
f 38//40 36//39 37//40
f 37//40 39//41 38//40
f 40//41 38//40 39//41
f 39//41 41//42 40//41
f 42//42 40//41 41//42
f 42//42 41//42 43//43
f 44//43 43//43 41//42
f 43//43 44//43 45//44
f 46//44 45//44 44//43
f 45//3 46//3 47//3
f 48//3 47//3 46//3
f 48//12 49//12 47//12
f 50//12 47//12 49//12
f 50//3 49//3 51//3
f 52//3 51//3 49//3
