# SSTK version 0.8.0
# 48
mtllib original-48.mtl
o LT_11_TR1/LT_11_TR/mesh35/mesh35-geometry#mesh35-geometry
v 0.384826 0.358028 0.484140
v 0.286970 0.356938 0.482913
v 0.285880 0.358028 0.484140
v 0.383735 0.356938 0.482913
v 0.284970 0.356938 0.482913
v 0.385411 0.358613 0.485674
v 0.383735 0.254988 0.482913
v 0.382281 0.355484 0.482151
v 0.284970 0.358028 0.484140
v 0.288425 0.355484 0.482151
v 0.285295 0.358613 0.485674
v 0.384826 0.254988 0.484140
v 0.284970 0.355484 0.482151
v 0.385414 0.358617 0.487316
v 0.385411 0.254988 0.485674
v 0.382281 0.254988 0.482151
v 0.380651 0.353854 0.481954
v 0.284970 0.358613 0.485674
v 0.290054 0.353854 0.481954
v 0.285291 0.358617 0.487316
v 0.290167 0.353854 0.481954
v 0.284970 0.353854 0.481954
v 0.385414 0.358617 0.495460
v 0.385414 0.254988 0.487316
v 0.380651 0.254988 0.481954
v 0.290167 0.353741 0.481954
v 0.284970 0.358617 0.487316
v 0.285291 0.358617 0.495460
v 0.290167 0.263370 0.481954
v 0.285704 0.358205 0.500956
v 0.385414 0.254988 0.495460
v 0.290167 0.254988 0.481954
v 0.284970 0.358617 0.495460
v 0.284970 0.263370 0.481954
v 0.385002 0.358205 0.500956
v 0.290167 0.254988 0.486795
v 0.284970 0.263370 0.486795
v 0.288311 0.355597 0.505812
v 0.284970 0.358205 0.500956
v 0.385002 0.254988 0.500956
v 0.290167 0.263370 0.486795
v 0.382394 0.355597 0.505812
v 0.292665 0.351243 0.509192
v 0.284970 0.355597 0.505812
v 0.382394 0.254988 0.505812
v 0.284970 0.254988 0.486795
v 0.378040 0.351243 0.509192
v 0.284970 0.351243 0.509192
v 0.378040 0.254988 0.509192
v 0.298016 0.345892 0.510514
v 0.284970 0.345892 0.510514
v 0.372689 0.345892 0.510514
v 0.372689 0.254988 0.510514
v 0.372689 0.345892 0.512962
v 0.298016 0.345892 0.512962
v 0.284970 0.345892 0.512962
v 0.298209 0.345700 0.513781
v 0.372689 0.254988 0.512962
v 0.372497 0.345700 0.513781
v 0.284970 0.345700 0.513781
v 0.298793 0.345116 0.514387
v 0.372497 0.254988 0.513781
v 0.371913 0.345116 0.514387
v 0.284970 0.345116 0.514387
v 0.299604 0.344304 0.514610
v 0.371913 0.254988 0.514387
v 0.284970 0.344304 0.514610
v 0.371102 0.344304 0.514610
v 0.371102 0.254988 0.514610
v 0.299604 0.272807 0.514610
v 0.284970 0.272807 0.514610
v 0.299604 0.254988 0.514610
v 0.299604 0.272807 0.511881
v 0.299604 0.254988 0.511881
v 0.284970 0.272807 0.511881
v 0.295734 0.254988 0.510630
v 0.284970 0.268937 0.510630
v 0.295734 0.268937 0.510630
v 0.292602 0.254988 0.508035
v 0.284970 0.265805 0.508035
v 0.292602 0.265805 0.508035
v 0.290654 0.263857 0.504464
v 0.290654 0.254988 0.504464
v 0.284970 0.263857 0.504464
v 0.290167 0.263370 0.500426
v 0.290167 0.254988 0.500426
v 0.284970 0.263370 0.500426
v 0.290167 0.263370 0.498042
v 0.290167 0.254988 0.498042
v 0.284970 0.263370 0.498042
v 0.284970 0.254988 0.498042
vt 0.339562 0.481489
vt 0.292741 0.480968
vt 0.292219 0.481489
vt 0.33904 0.480968
vt 0.057787 0.125251
vt 0.057265 0.125687
vt 0.057787 0.126209
vt 0.339842 0.481769
vt 0.33904 0.432188
vt 0.338345 0.480272
vt 0.057265 0.125251
vt 0.058483 0.126904
vt 0.29194 0.481769
vt 0.339562 0.432188
vt 0.293437 0.480272
vt 0.056985 0.125407
vt 0.058483 0.125251
vt 0.339844 0.481771
vt 0.339842 0.432188
vt 0.338345 0.432188
vt 0.337565 0.479492
vt 0.056985 0.125251
vt 0.059262 0.127684
vt 0.291938 0.481771
vt 0.294271 0.479492
vt 0.056983 0.125405
vt 0.059262 0.125251
vt 0.294217 0.479492
vt 0.339844 0.432188
vt 0.337565 0.432188
vt 0.294271 0.479438
vt 0.056983 0.125251
vt 0.059316 0.127738
vt 0.059262 0.127738
vt 0.294271 0.436198
vt 0.102556 0.127738
vt 0.292135 0.481574
vt 0.294271 0.432188
vt 0.102556 0.125251
vt 0.339646 0.481574
vt 0.057181 0.125603
vt 0.293383 0.480326
vt 0.057181 0.125251
vt 0.339646 0.432188
vt 0.338399 0.480326
vt 0.058428 0.12685
vt 0.291784 0.436198
vt 0.295466 0.478243
vt 0.058428 0.125251
vt 0.338399 0.432188
vt 0.291784 0.432188
vt 0.336316 0.478243
vt 0.060512 0.125251
vt 0.060512 0.128933
vt 0.336316 0.432188
vt 0.298026 0.475682
vt 0.063072 0.125251
vt 0.333755 0.475682
vt 0.063072 0.131494
vt 0.333755 0.432188
vt 0.298118 0.47559
vt 0.063164 0.131586
vt 0.333663 0.47559
vt 0.063164 0.125251
vt 0.298398 0.475311
vt 0.333663 0.432188
vt 0.063443 0.131865
vt 0.333384 0.475311
vt 0.063443 0.125251
vt 0.298786 0.474923
vt 0.333384 0.432188
vt 0.063832 0.125251
vt 0.332996 0.474923
vt 0.063832 0.132253
vt 0.332996 0.432188
vt 0.298786 0.440713
vt 0.098041 0.125251
vt 0.298786 0.432188
vt 0.098041 0.132253
vt 0.298786 0.45113
vt 0.298786 0.442604
vt 0.296934 0.432188
vt 0.099893 0.125251
vt 0.296934 0.438861
vt 0.099893 0.130402
vt 0.295436 0.432188
vt 0.101391 0.125251
vt 0.295436 0.437363
vt 0.101391 0.128903
vt 0.294504 0.436431
vt 0.102323 0.127971
vt 0.294504 0.432188
vt 0.102323 0.125251
vn 0 0.854978829854955 -0.5186628967835002
vn 0 0.6158659605362344 -0.7878509495156943
vn 0 0.9832544340282683 -0.18223808044355105
vn 0.8549788298549549 0 -0.5186628967835004
vn 0.6158659605362344 0 -0.7878509495156946
vn 0 0.2969149752905885 -0.9549039205324215
vn 0.9832544340282681 0 -0.18223808044355125
vn 0.2969149752905883 0 -0.9549039205324216
vn 0 0.999999367186835 -0.0011250004130853803
vn 0 0.12015698830428001 -0.9927549033682206
vn 0.999999367186835 0 -0.0011250004130856023
vn 0.12015698830427979 0 -0.9927549033682206
vn 0 0.9992990646416606 0.037435002421558304
vn 0 0 -1
vn 0.9992990646416606 0 0.03743500242155808
vn 0 0.959988306359197 0.28004008936864816
vn 0.9599883063591971 0 0.28004008936864794
vn -1 0 0
vn 0 -1 0
vn 0 0.7637257763211728 0.6455408109350035
vn 0.7637257763211729 0 0.6455408109350033
vn 0 0.43601797816247595 0.8999379549275088
vn 0.43601797816247617 0 0.8999379549275087
vn 0 0.23985893850677195 0.9708077511116219
vn 0.23985893850677217 0 0.9708077511116219
vn 0 1 0
vn 0 0.9933549531603351 0.11509099457311468
vn 0.9933549531603351 0 0.11509099457311446
vn 1 0 0
vn 0 0.87819811091072 0.4782970604058138
vn 0.8781981109107201 0 0.4782970604058136
vn 0 0.5107362628083493 0.8597374423930603
vn 0.5107362628083495 0 0.8597374423930602
vn 0 0.13360901643143805 0.9910341218788704
vn 0.08969600004861523 0.08969600004861501 0.9919220005376217
vn 0.13360901643143827 0 0.9910341218788704
vn 0 0 1
vn -0.3075990241377578 0 0.9515160746668967
vn -0.48148786630215307 0 0.8764527566297
vn 0 -0.4814878663021533 0.8764527566296999
vn 0 -0.307599024137758 0.9515160746668966
vn -0.7718322552835607 0 0.6358262102995539
vn 0 -0.7718322552835608 0.6358262102995537
vn -0.9524214534017694 0 0.30478414509298396
vn 0 -0.9524214534017695 0.30478414509298374
vn -0.9981997002985706 0 0.059977981992093435
vn 0 -0.9981997002985706 0.05997798199209321
vn 0 -0.854978829854955 0.5186628967835002
vn 0 -0.6158659605362344 0.7878509495156943
vn 0 -0.9832544340282683 0.18223808044355105
vn -0.6158659605362344 0 0.7878509495156946
vn -0.8549788298549549 0 0.5186628967835004
vn 0 -0.2969149752905885 0.9549039205324215
vn -0.9832544340282681 0 0.18223808044355125
vn -0.2969149752905883 0 0.9549039205324216
vn 0 -0.999999367186835 0.0011250004130853803
vn 0 -0.12015698830428001 0.9927549033682206
vn -0.999999367186835 0 0.0011250004130856023
vn -0.12015698830427979 0 0.9927549033682206
vn 0 -0.9992990646416606 -0.037435002421558304
vn -0.9992990646416606 0 -0.03743500242155808
vn 0 -0.959988306359197 -0.28004008936864816
vn -0.9599883063591971 0 -0.28004008936864794
vn 0 -0.7637257763211728 -0.6455408109350035
vn -0.7637257763211729 0 -0.6455408109350033
vn 0 -0.43601797816247595 -0.8999379549275088
vn -0.43601797816247617 0 -0.8999379549275087
vn 0 -0.23985893850677195 -0.9708077511116219
vn -0.23985893850677217 0 -0.9708077511116219
vn 0 -0.9933549531603351 -0.11509099457311468
vn -0.9933549531603351 0 -0.11509099457311446
vn 0 -0.87819811091072 -0.4782970604058138
vn -0.8781981109107201 0 -0.4782970604058136
vn 0 -0.5107362628083493 -0.8597374423930603
vn -0.5107362628083495 0 -0.8597374423930602
vn 0 -0.13360901643143805 -0.9910341218788704
vn -0.08969600004861523 -0.08969600004861501 -0.9919220005376217
vn -0.13360901643143827 0 -0.9910341218788704
vn 0.3075990241377578 0 -0.9515160746668967
vn 0.48148786630215307 0 -0.8764527566297
vn 0 0.307599024137758 -0.9515160746668966
vn 0 0.4814878663021533 -0.8764527566296999
vn 0.7718322552835607 0 -0.6358262102995539
vn 0 0.7718322552835608 -0.6358262102995537
vn 0.9524214534017694 0 -0.30478414509298396
vn 0 0.9524214534017695 -0.30478414509298374
vn 0.9981997002985706 0 -0.059977981992093435
vn 0 0.9981997002985706 -0.05997798199209321
usemtl material_0_0
f 1/1/1 2/2/2 3/3/1
f 2/2/2 1/1/1 4/4/2
f 5/5/2 3/6/1 2/7/2
f 3/3/1 6/8/3 1/1/1
f 1/1/4 7/9/5 4/4/5
f 8/10/6 2/2/2 4/4/2
f 3/6/1 5/5/2 9/11/1
f 10/12/6 5/5/2 2/7/2
f 6/8/3 3/3/1 11/13/3
f 6/8/7 12/14/4 1/1/4
f 7/9/5 1/1/4 12/14/4
f 7/9/5 8/10/8 4/4/5
f 2/2/2 8/10/6 10/15/6
f 9/11/1 11/16/3 3/6/1
f 5/5/2 10/12/6 13/17/6
f 11/13/3 14/18/9 6/8/3
f 12/14/4 6/8/7 15/19/7
f 8/10/8 7/9/5 16/20/8
f 17/21/10 10/15/6 8/10/6
f 11/16/3 9/11/1 18/22/3
f 19/23/10 13/17/6 10/12/6
f 14/18/9 11/13/3 20/24/9
f 14/18/11 15/19/7 6/8/7
f 16/20/8 17/21/12 8/10/8
f 21/25/10 10/15/6 17/21/10
f 18/22/3 20/26/9 11/16/3
f 13/17/6 19/23/10 22/27/10
f 10/15/6 21/25/10 19/28/10
f 20/24/9 23/18/13 14/18/9
f 15/19/7 14/18/11 24/29/11
f 17/21/12 16/20/8 25/30/12
f 17/21/14 26/31/14 21/25/14
f 20/26/9 18/22/3 27/32/9
f 26/33/14 22/27/14 19/23/14
f 21/34/14 26/33/14 19/23/14
f 23/18/13 20/24/9 28/24/13
f 23/18/15 24/29/11 14/18/11
f 25/30/14 29/35/14 17/21/14
f 17/21/14 29/35/14 26/31/14
f 27/32/9 28/26/13 20/26/9
f 29/36/14 22/27/14 26/33/14
f 30/37/16 23/18/13 28/24/13
f 24/29/11 23/18/15 31/29/15
f 29/35/14 25/30/14 32/38/14
f 28/26/13 27/32/9 33/32/13
f 22/27/14 29/36/14 34/39/14
f 23/18/13 30/37/16 35/40/16
f 33/32/13 30/41/16 28/26/13
f 35/40/17 31/29/15 23/18/15
f 36/38/18 29/35/18 32/38/18
f 29/36/19 37/39/19 34/39/19
f 38/42/20 35/40/16 30/37/16
f 30/41/16 33/32/13 39/43/16
f 31/29/15 35/40/17 40/44/17
f 29/35/18 36/38/18 41/35/18
f 37/39/19 29/36/19 41/36/19
f 35/40/16 38/42/20 42/45/20
f 39/43/16 38/46/20 30/41/16
f 42/45/21 40/44/17 35/40/17
f 36/38/14 37/47/14 41/35/14
f 43/48/22 42/45/20 38/42/20
f 38/46/20 39/43/16 44/49/20
f 40/44/17 42/45/21 45/50/21
f 37/47/14 36/38/14 46/51/14
f 42/45/20 43/48/22 47/52/22
f 38/46/20 48/53/22 43/54/22
f 48/53/22 38/46/20 44/49/20
f 42/45/21 49/55/23 45/50/21
f 50/56/24 47/52/22 43/48/22
f 49/55/23 42/45/21 47/52/23
f 51/57/24 43/54/22 48/53/22
f 47/52/22 50/56/24 52/58/24
f 43/54/22 51/57/24 50/59/24
f 47/52/23 53/60/25 49/55/23
f 50/56/26 54/58/27 52/58/26
f 53/60/25 47/52/23 52/58/25
f 51/57/26 55/59/27 50/59/26
f 54/58/27 50/56/26 55/56/27
f 54/58/28 53/60/29 52/58/29
f 55/59/27 51/57/26 56/57/27
f 57/61/30 54/58/27 55/56/27
f 53/60/29 54/58/28 58/60/28
f 56/57/27 57/62/30 55/59/27
f 54/58/27 57/61/30 59/63/30
f 59/63/31 58/60/28 54/58/28
f 57/62/30 56/57/27 60/64/30
f 61/65/32 59/63/30 57/61/30
f 58/60/28 59/63/31 62/66/31
f 60/64/30 61/67/32 57/62/30
f 59/63/30 61/65/32 63/68/32
f 63/68/33 62/66/31 59/63/31
f 61/67/32 60/64/30 64/69/32
f 65/70/34 63/68/32 61/65/32
f 62/66/31 63/68/33 66/71/33
f 67/72/34 61/67/32 64/69/32
f 63/68/32 65/70/34 68/73/35
f 61/67/32 67/72/34 65/74/34
f 63/68/33 69/75/36 66/71/33
f 70/76/37 68/73/35 65/70/34
f 69/75/36 63/68/33 68/73/35
f 71/77/37 65/74/34 67/72/34
f 72/78/37 68/73/35 70/76/37
f 65/74/34 71/77/37 70/79/37
f 68/73/35 72/78/37 69/75/36
f 73/80/18 72/81/18 70/80/18
f 71/77/19 73/79/19 70/79/19
f 72/81/18 73/80/18 74/81/18
f 73/79/19 71/77/19 75/77/19
f 73/76/38 76/82/39 74/78/38
f 77/83/40 73/79/41 75/77/41
f 76/82/39 73/76/38 78/84/39
f 73/79/41 77/83/40 78/85/40
f 78/84/39 79/86/42 76/82/39
f 80/87/43 78/85/40 77/83/40
f 79/86/42 78/84/39 81/88/42
f 78/85/40 80/87/43 81/89/43
f 82/90/44 79/86/42 81/88/42
f 80/87/43 82/91/45 81/89/43
f 79/86/42 82/90/44 83/92/44
f 82/91/45 80/87/43 84/93/45
f 85/35/46 83/92/44 82/90/44
f 84/93/45 85/36/47 82/91/45
f 83/92/44 85/35/46 86/38/46
f 85/36/47 84/93/45 87/39/47
f 88/35/18 86/38/46 85/35/46
f 87/39/47 88/36/19 85/36/47
f 86/38/46 88/35/18 89/38/18
f 88/36/19 87/39/47 90/39/19
f 88/35/37 91/51/37 89/38/37
f 91/51/37 88/35/37 90/47/37
usemtl material_1_0
f 3//48 2//49 1//48
f 4//49 1//48 2//49
f 2//49 3//48 5//49
f 1//48 6//50 3//48
f 4//51 7//51 1//52
f 4//49 2//49 8//53
f 9//48 5//49 3//48
f 2//49 5//49 10//53
f 11//50 3//48 6//50
f 1//52 12//52 6//54
f 12//52 1//52 7//51
f 4//51 8//55 7//51
f 10//53 8//53 2//49
f 3//48 11//50 9//48
f 13//53 10//53 5//49
f 6//50 14//56 11//50
f 15//54 6//54 12//52
f 16//55 7//51 8//55
f 8//53 10//53 17//57
f 18//50 9//48 11//50
f 10//53 13//53 19//57
f 20//56 11//50 14//56
f 6//54 15//54 14//58
f 8//55 17//59 16//55
f 17//57 10//53 21//57
f 11//50 20//56 18//50
f 22//57 19//57 13//53
f 19//57 21//57 10//53
f 14//56 23//60 20//56
f 24//58 14//58 15//54
f 25//59 16//55 17//59
f 21//37 26//37 17//37
f 27//56 18//50 20//56
f 19//37 22//37 26//37
f 19//37 26//37 21//37
f 28//60 20//56 23//60
f 14//58 24//58 23//61
f 17//37 29//37 25//37
f 26//37 29//37 17//37
f 20//56 28//60 27//56
f 26//37 22//37 29//37
f 28//60 23//60 30//62
f 31//61 23//61 24//58
f 32//37 25//37 29//37
f 33//60 27//56 28//60
f 34//37 29//37 22//37
f 35//62 30//62 23//60
f 28//60 30//62 33//60
f 23//61 31//61 35//63
f 32//29 29//29 36//29
f 34//26 37//26 29//26
f 30//62 35//62 38//64
f 39//62 33//60 30//62
f 40//63 35//63 31//61
f 41//29 36//29 29//29
f 41//26 29//26 37//26
f 42//64 38//64 35//62
f 30//62 38//64 39//62
f 35//63 40//63 42//65
f 41//37 37//37 36//37
f 38//64 42//64 43//66
f 44//64 39//62 38//64
f 45//65 42//65 40//63
f 46//37 36//37 37//37
f 47//66 43//66 42//64
f 43//66 48//66 38//64
f 44//64 38//64 48//66
f 45//65 49//67 42//65
f 43//66 47//66 50//68
f 47//67 42//65 49//67
f 48//66 43//66 51//68
f 52//68 50//68 47//66
f 50//68 51//68 43//66
f 49//67 53//69 47//67
f 52//19 54//70 50//19
f 52//69 47//67 53//69
f 50//19 55//70 51//19
f 55//70 50//19 54//70
f 52//18 53//18 54//71
f 56//70 51//19 55//70
f 55//70 54//70 57//72
f 58//71 54//71 53//18
f 55//70 57//72 56//70
f 59//72 57//72 54//70
f 54//71 58//71 59//73
f 60//72 56//70 57//72
f 57//72 59//72 61//74
f 62//73 59//73 58//71
f 57//72 61//74 60//72
f 63//74 61//74 59//72
f 59//73 62//73 63//75
f 64//74 60//72 61//74
f 61//74 63//74 65//76
f 66//75 63//75 62//73
f 64//74 61//74 67//76
f 68//77 65//76 63//74
f 65//76 67//76 61//74
f 66//75 69//78 63//75
f 65//76 68//77 70//14
f 68//77 63//75 69//78
f 67//76 65//76 71//14
f 70//14 68//77 72//14
f 70//14 71//14 65//76
f 69//78 72//14 68//77
f 70//29 72//29 73//29
f 70//26 73//26 71//26
f 74//29 73//29 72//29
f 75//26 71//26 73//26
f 74//79 76//80 73//79
f 75//81 73//81 77//82
f 78//80 73//79 76//80
f 78//82 77//82 73//81
f 76//80 79//83 78//80
f 77//82 78//82 80//84
f 81//83 78//80 79//83
f 81//84 80//84 78//82
f 81//83 79//83 82//85
f 81//84 82//86 80//84
f 83//85 82//85 79//83
f 84//86 80//84 82//86
f 82//85 83//85 85//87
f 82//86 85//88 84//86
f 86//87 85//87 83//85
f 87//88 84//86 85//88
f 85//87 86//87 88//29
f 85//88 88//26 87//88
f 89//29 88//29 86//87
f 90//26 87//88 88//26
f 89//14 91//14 88//14
f 90//14 88//14 91//14
