# SSTK version 0.8.0
# 37
mtllib original-37.mtl
o DF_12_BL1/DF_12_BL/mesh25/mesh25-geometry#mesh25-geometry
v -0.296193 0.460755 0.511881
v -0.296193 0.471553 0.514610
v -0.296193 0.460755 0.514610
v -0.296193 0.471553 0.511881
v -0.367691 0.471553 0.514610
v -0.281559 0.460755 0.514610
v -0.292323 0.464625 0.510630
v -0.367691 0.389257 0.514610
v -0.281559 0.460755 0.511881
v -0.296193 0.389257 0.514610
v -0.292323 0.471553 0.510630
v -0.281559 0.464625 0.510630
v -0.368503 0.471553 0.514387
v -0.281559 0.389257 0.514610
v -0.289192 0.467757 0.508035
v -0.281559 0.467757 0.508035
v -0.368503 0.388446 0.514387
v -0.295382 0.388446 0.514387
v -0.289192 0.471553 0.508035
v -0.369086 0.471553 0.513781
v -0.281559 0.388446 0.514387
v -0.287244 0.469705 0.504464
v -0.294798 0.387862 0.513781
v -0.369086 0.387862 0.513781
v -0.287244 0.471553 0.504464
v -0.281559 0.469705 0.504464
v -0.369279 0.471553 0.512962
v -0.281559 0.387862 0.513781
v -0.286757 0.470192 0.500426
v -0.294606 0.387670 0.512962
v -0.369279 0.387670 0.512962
v -0.286757 0.471553 0.500426
v -0.281559 0.470192 0.500426
v -0.369279 0.471553 0.510514
v -0.281559 0.387670 0.512962
v -0.286757 0.470192 0.498042
v -0.294606 0.387670 0.510514
v -0.369279 0.387670 0.510514
v -0.286757 0.471553 0.498042
v -0.281559 0.470192 0.498042
v -0.374630 0.471553 0.509192
v -0.281559 0.387670 0.510514
v -0.281559 0.471553 0.498042
v -0.374630 0.382319 0.509192
v -0.289255 0.382319 0.509192
v -0.378984 0.471553 0.505812
v -0.281559 0.382319 0.509192
v -0.378984 0.377965 0.505812
v -0.284901 0.377965 0.505812
v -0.381591 0.471553 0.500956
v -0.281559 0.377965 0.505812
v -0.282293 0.375357 0.500956
v -0.381591 0.375357 0.500956
v -0.382004 0.471553 0.495460
v -0.281559 0.375357 0.500956
v -0.281881 0.374945 0.495460
v -0.382004 0.374945 0.495460
v -0.382004 0.471553 0.487316
v -0.281559 0.374945 0.495460
v -0.281881 0.374945 0.487316
v -0.382004 0.374945 0.487316
v -0.281559 0.374945 0.487316
v -0.382000 0.471553 0.485674
v -0.382000 0.374949 0.485674
v -0.281559 0.374949 0.485674
v -0.281884 0.374949 0.485674
v -0.381415 0.471553 0.484140
v -0.381415 0.375534 0.484140
v -0.281559 0.375534 0.484140
v -0.282469 0.375534 0.484140
v -0.380325 0.471553 0.482913
v -0.380325 0.376624 0.482913
v -0.281559 0.376624 0.482913
v -0.283560 0.376624 0.482913
v -0.378870 0.378078 0.482151
v -0.285014 0.378078 0.482151
v -0.378870 0.471553 0.482151
v -0.281559 0.378078 0.482151
v -0.377241 0.379708 0.481954
v -0.286644 0.379708 0.481954
v -0.377241 0.471553 0.481954
v -0.281559 0.379708 0.481954
v -0.286757 0.379708 0.481954
v -0.286757 0.470192 0.481954
v -0.281559 0.470192 0.481954
v -0.286757 0.471553 0.481954
v -0.281559 0.470192 0.486795
v -0.286757 0.471553 0.486795
v -0.286757 0.470192 0.486795
v -0.281559 0.471553 0.486795
vt 0.446657 0.574912
vt 0.446657 0.580078
vt 0.412447 0.580078
vt -0.025741 0.287126
vt -0.025741 0.280124
vt 0.448508 0.576764
vt 0.412447 0.540702
vt 0.008469 0.280124
vt 0.448508 0.580078
vt -0.027593 0.287126
vt -0.027593 0.281976
vt 0.446657 0.540702
vt 0.412059 0.580078
vt 0.008469 0.287126
vt 0.450007 0.578262
vt -0.029091 0.287126
vt 0.412059 0.540314
vt 0.008857 0.280512
vt 0.450007 0.580078
vt -0.029091 0.283474
vt 0.447045 0.540314
vt 0.41178 0.580078
vt 0.008857 0.287126
vt 0.450939 0.579194
vt -0.030023 0.284406
vt 0.447324 0.540035
vt 0.41178 0.540035
vt 0.009136 0.280792
vt 0.450939 0.580078
vt -0.030023 0.287126
vt 0.411687 0.580078
vt 0.009136 0.287126
vt 0.451172 0.579427
vt -0.030256 0.284639
vt 0.447416 0.539943
vt 0.411687 0.539943
vt 0.009228 0.280884
vt 0.451172 0.580078
vt -0.030256 0.287126
vt 0.009228 0.287126
vt 0.409127 0.580078
vt -0.030907 0.287126
vt -0.030907 0.284639
vt 0.409127 0.537382
vt 0.011789 0.283444
vt 0.449977 0.537382
vt 0.407044 0.580078
vt 0.011789 0.287126
vt 0.407044 0.535299
vt 0.013872 0.285527
vt 0.45206 0.535299
vt 0.405796 0.580078
vt 0.013872 0.287126
vt 0.453308 0.534051
vt 0.405796 0.534051
vt 0.01512 0.286775
vt 0.405599 0.580078
vt 0.01512 0.287126
vt 0.453505 0.533854
vt 0.405599 0.533854
vt 0.015317 0.286972
vt 0.015317 0.287126
vt 0.405601 0.580078
vt 0.405601 0.533856
vt 0.015315 0.287126
vt 0.453503 0.533856
vt 0.015315 0.286971
vt 0.405881 0.580078
vt 0.405881 0.534136
vt 0.015035 0.287126
vt 0.453223 0.534136
vt 0.015035 0.286691
vt 0.406402 0.580078
vt 0.406402 0.534657
vt 0.014514 0.287126
vt 0.452702 0.534657
vt 0.014514 0.286169
vt 0.407098 0.535353
vt 0.452006 0.535353
vt 0.013818 0.285473
vt 0.407098 0.580078
vt 0.013818 0.287126
vt 0.407878 0.536133
vt 0.013038 0.284693
vt 0.407878 0.580078
vt 0.451226 0.536133
vt 0.013038 0.287126
vt 0.451172 0.536133
vt 0.013038 0.284639
vn 1 0 0
vn -0.13360901643143827 0 0.9910341218788704
vn 0 0 1
vn 0 1 0
vn 0.48148786630215307 0 0.8764527566297
vn 0.3075990241377578 0 0.9515160746668967
vn -0.08969600004861523 -0.08969600004861546 0.9919220005376217
vn 0 -0.1336090164314385 0.9910341218788704
vn 0 0.3075990241377576 0.9515160746668968
vn 0 0.48148786630215284 0.8764527566297001
vn -0.5107362628083495 0 0.8597374423930602
vn 0.7718322552835607 0 0.6358262102995539
vn 0 0.7718322552835606 0.6358262102995541
vn 0 -0.5107362628083497 0.85973744239306
vn -0.8781981109107201 0 0.4782970604058136
vn 0.9524214534017694 0 0.30478414509298396
vn 0 0.9524214534017693 0.3047841450929842
vn 0 -0.8781981109107202 0.4782970604058134
vn -0.9933549531603351 0 0.11509099457311446
vn 0.9981997002985706 0 0.059977981992093435
vn 0 0.9981997002985706 0.05997798199209366
vn 0 -0.9933549531603351 0.11509099457311424
vn -1 0 0
vn 0 -1 0
vn -0.43601797816247617 0 0.8999379549275087
vn -0.23985893850677217 0 0.9708077511116219
vn 0 -0.4360179781624764 0.8999379549275086
vn 0 -0.2398589385067724 0.9708077511116219
vn -0.7637257763211729 0 0.6455408109350033
vn 0 -0.7637257763211732 0.6455408109350032
vn -0.9599883063591971 0 0.28004008936864794
vn 0 -0.9599883063591972 0.2800400893686477
vn -0.9992990646416606 0 0.03743500242155808
vn 0 -0.9992990646416606 0.03743500242155786
vn -0.999999367186835 0 -0.0011250004130856023
vn 0 -0.999999367186835 -0.0011250004130858244
vn -0.9832544340282681 0 -0.18223808044355125
vn 0 -0.9832544340282681 -0.18223808044355147
vn -0.8549788298549549 0 -0.5186628967835004
vn 0 -0.8549788298549548 -0.5186628967835006
vn -0.6158659605362344 0 -0.7878509495156946
vn 0 -0.6158659605362342 -0.7878509495156947
vn -0.2969149752905883 0 -0.9549039205324216
vn 0 -0.2969149752905881 -0.9549039205324217
vn -0.12015698830427979 0 -0.9927549033682206
vn 0 -0.12015698830427957 -0.9927549033682206
vn 0 0 -1
vn 0.13360901643143827 0 -0.9910341218788704
vn -0.3075990241377578 0 -0.9515160746668967
vn -0.48148786630215307 0 -0.8764527566297
vn 0.08969600004861523 0.08969600004861546 -0.9919220005376217
vn 0 0.1336090164314385 -0.9910341218788704
vn 0 -0.48148786630215284 -0.8764527566297001
vn 0 -0.3075990241377576 -0.9515160746668968
vn 0.5107362628083495 0 -0.8597374423930602
vn -0.7718322552835607 0 -0.6358262102995539
vn 0 -0.7718322552835606 -0.6358262102995541
vn 0 0.5107362628083497 -0.85973744239306
vn 0.8781981109107201 0 -0.4782970604058136
vn -0.9524214534017694 0 -0.30478414509298396
vn 0 -0.9524214534017693 -0.3047841450929842
vn 0 0.8781981109107202 -0.4782970604058134
vn 0.9933549531603351 0 -0.11509099457311446
vn -0.9981997002985706 0 -0.059977981992093435
vn 0 -0.9981997002985706 -0.05997798199209366
vn 0 0.9933549531603351 -0.11509099457311424
vn 0.23985893850677217 0 -0.9708077511116219
vn 0.43601797816247617 0 -0.8999379549275087
vn 0 0.2398589385067724 -0.9708077511116219
vn 0 0.4360179781624764 -0.8999379549275086
vn 0.7637257763211729 0 -0.6455408109350033
vn 0 0.7637257763211732 -0.6455408109350032
vn 0.9599883063591971 0 -0.28004008936864794
vn 0 0.9599883063591972 -0.2800400893686477
vn 0.9992990646416606 0 -0.03743500242155808
vn 0 0.9992990646416606 -0.03743500242155786
vn 0.999999367186835 0 0.0011250004130856023
vn 0 0.999999367186835 0.0011250004130858244
vn 0.9832544340282681 0 0.18223808044355125
vn 0 0.9832544340282681 0.18223808044355147
vn 0.8549788298549549 0 0.5186628967835004
vn 0 0.8549788298549548 0.5186628967835006
vn 0.6158659605362344 0 0.7878509495156946
vn 0 0.6158659605362342 0.7878509495156947
vn 0.2969149752905883 0 0.9549039205324216
vn 0 0.2969149752905881 0.9549039205324217
vn 0.12015698830427979 0 0.9927549033682206
vn 0 0.12015698830427957 0.9927549033682206
usemtl material_0_0
f 1/1/1 2/2/1 3/1/1
f 2/2/1 1/1/1 4/2/1
f 5/3/2 3/1/3 2/2/3
f 6/4/4 1/5/4 3/5/4
f 7/6/5 4/2/6 1/1/6
f 8/7/7 3/1/3 5/3/2
f 1/5/4 6/4/4 9/4/4
f 10/8/8 6/4/3 3/5/3
f 4/2/6 7/6/5 11/9/5
f 1/5/9 12/10/10 7/11/10
f 3/1/3 8/7/7 10/12/8
f 13/13/11 8/7/7 5/3/2
f 12/10/10 1/5/9 9/4/9
f 6/4/3 10/8/8 14/14/8
f 15/15/12 11/9/5 7/6/5
f 16/16/13 7/11/10 12/10/10
f 17/17/14 10/12/8 8/7/7
f 8/7/7 13/13/11 17/17/11
f 18/18/14 14/14/8 10/8/8
f 11/9/5 15/15/12 19/19/12
f 7/11/10 16/16/13 15/20/13
f 10/12/8 17/17/14 18/21/14
f 20/22/15 17/17/11 13/13/11
f 14/14/8 18/18/14 21/23/14
f 22/24/16 19/19/12 15/15/12
f 16/16/13 22/25/17 15/20/13
f 17/17/14 23/26/18 18/21/14
f 17/17/11 20/22/15 24/27/15
f 23/28/18 21/23/14 18/18/14
f 19/19/12 22/24/16 25/29/16
f 22/25/17 16/16/13 26/30/17
f 23/26/18 17/17/14 24/27/18
f 27/31/19 24/27/15 20/22/15
f 21/23/14 23/28/18 28/32/18
f 29/33/20 25/29/16 22/24/16
f 26/30/17 29/34/21 22/25/17
f 24/27/18 30/35/22 23/26/18
f 24/27/15 27/31/19 31/36/19
f 30/37/22 28/32/18 23/28/18
f 25/29/16 29/33/20 32/38/20
f 29/34/21 26/30/17 33/39/21
f 30/35/22 24/27/18 31/36/22
f 34/31/23 31/36/19 27/31/19
f 28/32/18 30/37/22 35/40/22
f 36/33/1 32/38/20 29/33/20
f 33/39/21 36/34/4 29/34/21
f 31/36/22 37/35/24 30/35/22
f 31/36/19 34/31/23 38/36/23
f 37/37/24 35/40/22 30/37/22
f 32/38/20 36/33/1 39/38/1
f 36/34/4 33/39/21 40/39/4
f 37/35/24 31/36/22 38/36/24
f 41/41/25 38/36/26 34/31/26
f 35/40/22 37/37/24 42/40/24
f 36/34/3 43/42/3 39/43/3
f 43/42/3 36/34/3 40/39/3
f 44/44/27 37/35/28 38/36/28
f 38/36/26 41/41/25 44/44/25
f 45/45/27 42/40/28 37/37/28
f 37/35/28 44/44/27 45/46/27
f 46/47/29 44/44/25 41/41/25
f 42/40/28 45/45/27 47/48/27
f 48/49/30 45/46/27 44/44/27
f 44/44/25 46/47/29 48/49/29
f 49/50/30 47/48/27 45/45/27
f 45/46/27 48/49/30 49/51/30
f 50/52/31 48/49/29 46/47/29
f 47/48/27 49/50/30 51/53/30
f 48/49/30 52/54/32 49/51/30
f 48/49/29 50/52/31 53/55/31
f 52/56/32 51/53/30 49/50/30
f 52/54/32 48/49/30 53/55/32
f 54/57/33 53/55/31 50/52/31
f 51/53/30 52/56/32 55/58/32
f 53/55/32 56/59/34 52/54/32
f 53/55/31 54/57/33 57/60/33
f 56/61/34 55/58/32 52/56/32
f 56/59/34 53/55/32 57/60/34
f 58/57/35 57/60/33 54/57/33
f 55/58/32 56/61/34 59/62/34
f 57/60/34 60/59/36 56/59/34
f 57/60/33 58/57/35 61/60/35
f 56/61/34 62/62/36 59/62/34
f 60/59/36 57/60/34 61/60/36
f 62/62/36 56/61/34 60/61/36
f 63/63/37 61/60/35 58/57/35
f 64/64/38 60/59/36 61/60/36
f 60/61/36 65/65/38 62/62/36
f 61/60/35 63/63/37 64/64/37
f 60/59/36 64/64/38 66/66/38
f 65/65/38 60/61/36 66/67/38
f 67/68/39 64/64/37 63/63/37
f 68/69/40 66/66/38 64/64/38
f 66/67/38 69/70/40 65/65/38
f 64/64/37 67/68/39 68/69/39
f 66/66/38 68/69/40 70/71/40
f 69/70/40 66/67/38 70/72/40
f 71/73/41 68/69/39 67/68/39
f 72/74/42 70/71/40 68/69/40
f 70/72/40 73/75/42 69/70/40
f 68/69/39 71/73/41 72/74/41
f 70/71/40 72/74/42 74/76/42
f 73/75/42 70/72/40 74/77/42
f 71/73/41 75/78/43 72/74/41
f 72/74/42 76/79/44 74/76/42
f 76/80/44 73/75/42 74/77/42
f 75/78/43 71/73/41 77/81/43
f 76/79/44 72/74/42 75/78/44
f 73/75/42 76/80/44 78/82/44
f 77/81/43 79/83/45 75/78/43
f 79/83/46 76/79/44 75/78/44
f 80/84/46 78/82/44 76/80/44
f 79/83/45 77/81/43 81/85/45
f 76/79/44 79/83/46 80/86/46
f 78/82/44 80/84/46 82/87/46
f 81/85/47 83/88/47 79/83/47
f 80/86/46 79/83/46 83/88/46
f 80/84/47 84/34/47 82/87/47
f 83/88/47 81/85/47 84/33/47
f 84/34/47 80/84/47 83/89/47
f 82/87/47 84/34/47 85/39/47
f 84/33/47 81/85/47 86/38/47
f 84/34/4 87/39/4 85/39/4
f 88/43/1 84/34/1 86/43/1
f 87/39/4 84/34/4 89/34/4
f 84/34/1 88/43/1 89/34/1
f 88/43/47 87/39/47 89/34/47
f 87/39/47 88/43/47 90/42/47
usemtl material_1_0
f 3//23 2//23 1//23
f 4//23 1//23 2//23
f 2//47 3//47 5//48
f 3//24 1//24 6//24
f 1//49 4//49 7//50
f 5//48 3//47 8//51
f 9//24 6//24 1//24
f 3//47 6//47 10//52
f 11//50 7//50 4//49
f 7//53 12//53 1//54
f 10//52 8//51 3//47
f 5//48 8//51 13//55
f 9//54 1//54 12//53
f 14//52 10//52 6//47
f 7//50 11//50 15//56
f 12//53 7//53 16//57
f 8//51 10//52 17//58
f 17//55 13//55 8//51
f 10//52 14//52 18//58
f 19//56 15//56 11//50
f 15//57 16//57 7//53
f 18//58 17//58 10//52
f 13//55 17//55 20//59
f 21//58 18//58 14//52
f 15//56 19//56 22//60
f 15//57 22//61 16//57
f 18//58 23//62 17//58
f 24//59 20//59 17//55
f 18//58 21//58 23//62
f 25//60 22//60 19//56
f 26//61 16//57 22//61
f 24//62 17//58 23//62
f 20//59 24//59 27//63
f 28//62 23//62 21//58
f 22//60 25//60 29//64
f 22//61 29//65 26//61
f 23//62 30//66 24//62
f 31//63 27//63 24//59
f 23//62 28//62 30//66
f 32//64 29//64 25//60
f 33//65 26//61 29//65
f 31//66 24//62 30//66
f 27//63 31//63 34//1
f 35//66 30//66 28//62
f 29//64 32//64 36//23
f 29//65 36//24 33//65
f 30//66 37//4 31//66
f 38//1 34//1 31//63
f 30//66 35//66 37//4
f 39//23 36//23 32//64
f 40//24 33//65 36//24
f 38//4 31//66 37//4
f 34//67 38//67 41//68
f 42//4 37//4 35//66
f 39//47 43//47 36//47
f 40//47 36//47 43//47
f 38//69 37//69 44//70
f 44//68 41//68 38//67
f 37//69 42//69 45//70
f 45//70 44//70 37//69
f 41//68 44//68 46//71
f 47//70 45//70 42//69
f 44//70 45//70 48//72
f 48//71 46//71 44//68
f 45//70 47//70 49//72
f 49//72 48//72 45//70
f 46//71 48//71 50//73
f 51//72 49//72 47//70
f 49//72 52//74 48//72
f 53//73 50//73 48//71
f 49//72 51//72 52//74
f 53//74 48//72 52//74
f 50//73 53//73 54//75
f 55//74 52//74 51//72
f 52//74 56//76 53//74
f 57//75 54//75 53//73
f 52//74 55//74 56//76
f 57//76 53//74 56//76
f 54//75 57//75 58//77
f 59//76 56//76 55//74
f 56//76 60//78 57//76
f 61//77 58//77 57//75
f 59//76 62//78 56//76
f 61//78 57//76 60//78
f 60//78 56//76 62//78
f 58//77 61//77 63//79
f 61//78 60//78 64//80
f 62//78 65//80 60//78
f 64//79 63//79 61//77
f 66//80 64//80 60//78
f 66//80 60//78 65//80
f 63//79 64//79 67//81
f 64//80 66//80 68//82
f 65//80 69//82 66//80
f 68//81 67//81 64//79
f 70//82 68//82 66//80
f 70//82 66//80 69//82
f 67//81 68//81 71//83
f 68//82 70//82 72//84
f 69//82 73//84 70//82
f 72//83 71//83 68//81
f 74//84 72//84 70//82
f 74//84 70//82 73//84
f 72//83 75//85 71//83
f 74//84 76//86 72//84
f 74//84 73//84 76//86
f 77//85 71//83 75//85
f 75//86 72//84 76//86
f 78//86 76//86 73//84
f 75//85 79//87 77//85
f 75//86 76//86 79//88
f 76//86 78//86 80//88
f 81//87 77//85 79//87
f 80//88 79//88 76//86
f 82//88 80//88 78//86
f 79//3 83//3 81//3
f 83//88 79//88 80//88
f 82//3 84//3 80//3
f 84//3 81//3 83//3
f 83//3 80//3 84//3
f 85//3 84//3 82//3
f 86//3 81//3 84//3
f 85//24 87//24 84//24
f 86//23 84//23 88//23
f 89//24 84//24 87//24
f 89//23 88//23 84//23
f 89//3 87//3 88//3
f 90//3 88//3 87//3
