# SSTK version 0.8.0
# 35
mtllib original-35.mtl
o DF_12_TL1/DF_12_TL/mesh23/mesh23-geometry#mesh23-geometry
v -0.382004 0.674292 0.495460
v -0.381591 0.577685 0.500956
v -0.381591 0.673880 0.500956
v -0.382004 0.577685 0.495460
v -0.378984 0.577685 0.505812
v -0.281881 0.674292 0.495460
v -0.382004 0.674292 0.487316
v -0.378984 0.671272 0.505812
v -0.282293 0.673880 0.500956
v -0.382004 0.577685 0.487316
v -0.374630 0.666919 0.509192
v -0.281559 0.673880 0.500956
v -0.281881 0.674292 0.487316
v -0.382000 0.674289 0.485674
v -0.374630 0.577685 0.509192
v -0.289255 0.666919 0.509192
v -0.284901 0.671272 0.505812
v -0.281559 0.674292 0.495460
v -0.281559 0.671272 0.505812
v -0.382000 0.577685 0.485674
v -0.369279 0.661568 0.510514
v -0.281559 0.674292 0.487316
v -0.281884 0.674289 0.485674
v -0.381415 0.673704 0.484140
v -0.369279 0.577685 0.510514
v -0.294606 0.661568 0.510514
v -0.281559 0.674289 0.485674
v -0.381415 0.577685 0.484140
v -0.369279 0.577685 0.512962
v -0.281559 0.666919 0.509192
v -0.369279 0.661568 0.512962
v -0.281559 0.673704 0.484140
v -0.282469 0.673704 0.484140
v -0.380325 0.672614 0.482913
v -0.294606 0.661568 0.512962
v -0.281559 0.661568 0.510514
v -0.380325 0.577685 0.482913
v -0.369086 0.577685 0.513781
v -0.369086 0.661375 0.513781
v -0.281559 0.661568 0.512962
v -0.281559 0.672614 0.482913
v -0.283560 0.672614 0.482913
v -0.378870 0.577685 0.482151
v -0.294798 0.661375 0.513781
v -0.281559 0.661375 0.513781
v -0.285014 0.671159 0.482151
v -0.378870 0.671159 0.482151
v -0.368503 0.577685 0.514387
v -0.368503 0.660791 0.514387
v -0.281559 0.671159 0.482151
v -0.377241 0.577685 0.481954
v -0.295382 0.660791 0.514387
v -0.281559 0.660791 0.514387
v -0.286644 0.669529 0.481954
v -0.281559 0.669529 0.481954
v -0.377241 0.669529 0.481954
v -0.367691 0.659980 0.514610
v -0.286757 0.669529 0.481954
v -0.286757 0.577685 0.481954
v -0.367691 0.577685 0.514610
v -0.296193 0.659980 0.514610
v -0.286757 0.669416 0.481954
v -0.286757 0.579046 0.481954
v -0.296193 0.588482 0.514610
v -0.281559 0.659980 0.514610
v -0.281559 0.579046 0.481954
v -0.286757 0.579046 0.486795
v -0.296193 0.577685 0.514610
v -0.286757 0.577685 0.486795
v -0.296193 0.577685 0.511881
v -0.281559 0.588482 0.514610
v -0.281559 0.577685 0.486795
v -0.281559 0.579046 0.486795
v -0.296193 0.588482 0.511881
v -0.281559 0.588482 0.511881
v -0.292323 0.584612 0.510630
v -0.292323 0.577685 0.510630
v -0.289192 0.581480 0.508035
v -0.281559 0.584612 0.510630
v -0.289192 0.577685 0.508035
v -0.287244 0.577685 0.504464
v -0.281559 0.581480 0.508035
v -0.287244 0.579533 0.504464
v -0.286757 0.577685 0.500426
v -0.281559 0.579533 0.504464
v -0.286757 0.579046 0.500426
v -0.286757 0.577685 0.498042
v -0.281559 0.579046 0.500426
v -0.286757 0.579046 0.498042
v -0.281559 0.579046 0.498042
v -0.281559 0.577685 0.498042
vt 0.405599 0.661458
vt 0.405796 0.615234
vt 0.405796 0.661261
vt 0.405599 0.615234
vt 0.407044 0.615234
vt 0.453505 0.661458
vt 0.407044 0.660013
vt 0.453308 0.661261
vt 0.409127 0.65793
vt -0.11209 0.287126
vt -0.112287 0.286972
vt -0.11209 0.286775
vt 0.405601 0.661457
vt 0.409127 0.615234
vt 0.449977 0.65793
vt 0.45206 0.660013
vt -0.112287 0.287126
vt -0.110842 0.287126
vt 0.405601 0.615234
vt 0.411687 0.65537
vt -0.110842 0.285527
vt 0.453503 0.661457
vt 0.405881 0.661177
vt 0.411687 0.615234
vt -0.108759 0.283444
vt 0.447416 0.65537
vt -0.112286 0.287126
vt -0.112286 0.286971
vt 0.405881 0.615234
vt -0.108759 0.287126
vt -0.106199 0.280884
vt -0.112006 0.287126
vt 0.453223 0.661177
vt 0.406402 0.660655
vt -0.106199 0.287126
vt -0.112006 0.286691
vt 0.406402 0.615234
vt 0.41178 0.615234
vt 0.41178 0.655278
vt -0.111484 0.287126
vt 0.452702 0.660655
vt 0.407098 0.615234
vt 0.447324 0.655278
vt -0.106107 0.287126
vt -0.111484 0.286169
vt 0.452006 0.659959
vt 0.407098 0.659959
vt 0.412059 0.615234
vt 0.412059 0.654998
vt -0.106107 0.280792
vt -0.110788 0.287126
vt -0.110788 0.285473
vt 0.407878 0.615234
vt 0.447045 0.654998
vt -0.105827 0.287126
vt 0.451226 0.659179
vt -0.110008 0.287126
vt 0.407878 0.659179
vt 0.412447 0.65461
vt -0.105827 0.280512
vt 0.451172 0.659179
vt -0.110008 0.284693
vt 0.451172 0.615234
vt 0.412447 0.615234
vt 0.446657 0.65461
vt -0.105439 0.280124
vt -0.109954 0.284639
vt -0.110008 0.284639
vt 0.451172 0.659125
vt 0.451172 0.615885
vt 0.446657 0.620401
vt -0.105439 0.287126
vt -0.066714 0.287126
vt -0.066714 0.284639
vt -0.066063 0.284639
vt 0.446657 0.615234
vt -0.07123 0.280124
vt -0.07123 0.287126
vt -0.066063 0.287126
vt 0.448508 0.618549
vt 0.448508 0.615234
vt -0.069378 0.281976
vt 0.450007 0.61705
vt -0.069378 0.287126
vt 0.450007 0.615234
vt -0.067879 0.283474
vt 0.450939 0.615234
vt -0.067879 0.287126
vt 0.450939 0.616118
vt -0.066947 0.284406
vt -0.066947 0.287126
vn -0.9992990646416606 0 0.03743500242155808
vn -0.9599883063591971 0 0.28004008936864794
vn -0.7637257763211729 0 0.6455408109350033
vn 0 0.959988306359197 0.28004008936864816
vn 0 0.9992990646416606 0.037435002421558304
vn -0.999999367186835 0 -0.0011250004130856023
vn 0 0.999999367186835 -0.0011250004130853803
vn -0.43601797816247617 0 0.8999379549275087
vn 0 0.7637257763211728 0.6455408109350035
vn -0.9832544340282681 0 -0.18223808044355125
vn 0 0.43601797816247595 0.8999379549275088
vn 0 0.9832544340282683 -0.18223808044355105
vn -0.23985893850677217 0 0.9708077511116219
vn 0 0.23985893850677195 0.9708077511116219
vn -0.8549788298549549 0 -0.5186628967835004
vn 0 0.854978829854955 -0.5186628967835002
vn -0.9933549531603351 0 0.11509099457311446
vn -1 0 0
vn 0 0.9933549531603351 0.11509099457311468
vn 0 1 0
vn -0.6158659605362344 0 -0.7878509495156946
vn 0 0.6158659605362344 -0.7878509495156943
vn -0.8781981109107201 0 0.4782970604058136
vn 0 0.87819811091072 0.4782970604058138
vn -0.2969149752905883 0 -0.9549039205324216
vn 0 0.2969149752905885 -0.9549039205324215
vn -0.5107362628083495 0 0.8597374423930602
vn 0 0.5107362628083493 0.8597374423930603
vn -0.12015698830427979 0 -0.9927549033682206
vn 0 0.12015698830428001 -0.9927549033682206
vn -0.08969600004861523 0.08969600004861501 0.9919220005376217
vn 0 0 -1
vn -0.13360901643143827 0 0.9910341218788704
vn 0 0.13360901643143805 0.9910341218788704
vn 0 0 1
vn 1 0 0
vn 0 -1 0
vn 0.3075990241377578 0 0.9515160746668967
vn 0.48148786630215307 0 0.8764527566297
vn 0 -0.4814878663021533 0.8764527566296999
vn 0 -0.307599024137758 0.9515160746668966
vn 0.7718322552835607 0 0.6358262102995539
vn 0 -0.7718322552835608 0.6358262102995537
vn 0.9524214534017694 0 0.30478414509298396
vn 0 -0.9524214534017695 0.30478414509298374
vn 0.9981997002985706 0 0.059977981992093435
vn 0 -0.9981997002985706 0.05997798199209321
vn 0.9599883063591971 0 -0.28004008936864794
vn 0.9992990646416606 0 -0.03743500242155808
vn 0.7637257763211729 0 -0.6455408109350033
vn 0 -0.9992990646416606 -0.037435002421558304
vn 0 -0.959988306359197 -0.28004008936864816
vn 0.999999367186835 0 0.0011250004130856023
vn 0 -0.999999367186835 0.0011250004130853803
vn 0.43601797816247617 0 -0.8999379549275087
vn 0 -0.7637257763211728 -0.6455408109350035
vn 0.9832544340282681 0 0.18223808044355125
vn 0 -0.43601797816247595 -0.8999379549275088
vn 0 -0.9832544340282683 0.18223808044355105
vn 0.23985893850677217 0 -0.9708077511116219
vn 0 -0.23985893850677195 -0.9708077511116219
vn 0.8549788298549549 0 0.5186628967835004
vn 0 -0.854978829854955 0.5186628967835002
vn 0.9933549531603351 0 -0.11509099457311446
vn 0 -0.9933549531603351 -0.11509099457311468
vn 0.6158659605362344 0 0.7878509495156946
vn 0 -0.6158659605362344 0.7878509495156943
vn 0.8781981109107201 0 -0.4782970604058136
vn 0 -0.87819811091072 -0.4782970604058138
vn 0.2969149752905883 0 0.9549039205324216
vn 0 -0.2969149752905885 0.9549039205324215
vn 0.5107362628083495 0 -0.8597374423930602
vn 0 -0.5107362628083493 -0.8597374423930603
vn 0.12015698830427979 0 0.9927549033682206
vn 0 -0.12015698830428001 0.9927549033682206
vn 0.08969600004861523 -0.08969600004861501 -0.9919220005376217
vn 0.13360901643143827 0 -0.9910341218788704
vn 0 -0.13360901643143805 -0.9910341218788704
vn -0.3075990241377578 0 -0.9515160746668967
vn -0.48148786630215307 0 -0.8764527566297
vn 0 0.307599024137758 -0.9515160746668966
vn 0 0.4814878663021533 -0.8764527566296999
vn -0.7718322552835607 0 -0.6358262102995539
vn 0 0.7718322552835608 -0.6358262102995537
vn -0.9524214534017694 0 -0.30478414509298396
vn 0 0.9524214534017695 -0.30478414509298374
vn -0.9981997002985706 0 -0.059977981992093435
vn 0 0.9981997002985706 -0.05997798199209321
usemtl material_0_0
f 1/1/1 2/2/2 3/3/2
f 2/2/2 1/1/1 4/4/1
f 5/5/3 3/3/2 2/2/2
f 3/3/4 6/6/5 1/1/5
f 7/1/6 4/4/1 1/1/1
f 3/3/2 5/5/3 8/7/3
f 6/6/5 3/3/4 9/8/4
f 6/6/5 7/1/7 1/1/5
f 4/4/1 7/1/6 10/4/6
f 5/5/3 11/9/8 8/7/3
f 8/7/9 9/8/4 3/3/4
f 12/10/4 6/11/5 9/12/4
f 7/1/7 6/6/5 13/6/7
f 14/13/10 10/4/6 7/1/6
f 11/9/8 5/5/3 15/14/8
f 16/15/11 8/7/9 11/9/11
f 9/8/4 8/7/9 17/16/9
f 6/11/5 12/10/4 18/17/5
f 9/12/4 19/18/9 12/10/4
f 18/17/5 13/11/7 6/11/5
f 13/6/7 14/13/12 7/1/7
f 10/4/6 14/13/10 20/19/10
f 15/14/8 21/20/13 11/9/8
f 8/7/9 16/15/11 17/16/9
f 21/20/14 16/15/11 11/9/11
f 19/18/9 9/12/4 17/21/9
f 13/11/7 18/17/5 22/17/7
f 14/13/12 13/6/7 23/22/12
f 24/23/15 20/19/10 14/13/10
f 21/20/13 15/14/8 25/24/13
f 16/25/11 19/18/9 17/21/9
f 16/15/11 21/20/14 26/26/14
f 27/27/12 13/11/7 22/17/7
f 13/11/7 27/27/12 23/28/12
f 23/22/12 24/23/16 14/13/12
f 20/19/10 24/23/15 28/29/15
f 29/24/17 21/20/18 25/24/18
f 19/18/9 16/25/11 30/30/11
f 31/20/19 26/26/20 21/20/20
f 26/31/14 30/30/11 16/25/11
f 32/32/16 23/28/12 27/27/12
f 24/23/16 23/22/12 33/33/16
f 34/34/21 28/29/15 24/23/15
f 21/20/18 29/24/17 31/20/17
f 26/26/20 31/20/19 35/26/19
f 30/30/11 26/31/14 36/35/14
f 23/28/12 32/32/16 33/36/16
f 33/33/16 34/34/22 24/23/16
f 28/29/15 34/34/21 37/37/21
f 38/38/23 31/20/17 29/24/17
f 39/39/24 35/26/19 31/20/19
f 40/35/19 26/31/20 35/31/19
f 26/31/20 40/35/19 36/35/20
f 41/40/22 33/36/16 32/32/16
f 34/34/22 33/33/16 42/41/22
f 34/34/21 43/42/25 37/37/21
f 31/20/17 38/38/23 39/39/23
f 35/26/19 39/39/24 44/43/24
f 35/31/19 45/44/24 40/35/19
f 33/36/16 41/40/22 42/45/22
f 46/46/26 34/34/22 42/41/22
f 43/42/25 34/34/21 47/47/25
f 48/48/27 39/39/23 38/38/23
f 49/49/28 44/43/24 39/39/24
f 45/44/24 35/31/19 44/50/24
f 50/51/26 42/45/22 41/40/22
f 34/34/22 46/46/26 47/47/26
f 42/45/22 50/51/26 46/52/26
f 47/47/25 51/53/29 43/42/25
f 39/39/23 48/48/27 49/49/27
f 44/43/24 49/49/28 52/54/28
f 44/50/24 53/55/28 45/44/24
f 54/56/30 47/47/26 46/46/26
f 55/57/30 46/52/26 50/51/26
f 51/53/29 47/47/25 56/58/29
f 48/48/27 57/59/31 49/49/27
f 57/59/31 52/54/28 49/49/28
f 53/55/28 44/50/24 52/60/28
f 58/61/30 47/47/26 54/56/30
f 46/52/26 55/57/30 54/62/30
f 47/47/26 58/61/30 56/58/30
f 56/58/32 59/63/32 51/53/32
f 57/59/31 48/48/27 60/64/33
f 52/54/28 57/59/31 61/65/34
f 61/66/34 53/55/28 52/60/28
f 54/62/32 62/67/32 58/68/32
f 55/57/32 62/67/32 54/62/32
f 62/69/32 56/58/32 58/61/32
f 59/63/32 56/58/32 63/70/32
f 60/64/33 64/71/35 57/59/31
f 57/59/31 64/71/35 61/65/34
f 53/55/28 61/66/34 65/72/34
f 66/73/32 62/67/32 55/57/32
f 63/70/32 56/58/32 62/69/32
f 67/74/36 59/75/36 63/74/36
f 64/71/35 60/64/33 68/76/35
f 64/77/35 65/72/34 61/66/34
f 62/67/32 66/73/32 63/74/32
f 59/75/36 67/74/36 69/75/36
f 66/73/37 67/74/37 63/74/37
f 70/76/36 64/71/36 68/76/36
f 65/72/34 64/77/35 71/78/35
f 67/74/32 72/79/32 69/75/32
f 67/74/37 66/73/37 73/73/37
f 64/71/36 70/76/36 74/71/36
f 64/77/37 75/78/37 71/78/37
f 72/79/32 67/74/32 73/73/32
f 70/76/38 76/80/39 74/71/38
f 75/78/37 64/77/37 74/77/37
f 76/80/39 70/76/38 77/81/39
f 76/82/40 75/78/41 74/77/41
f 77/81/39 78/83/42 76/80/39
f 75/78/41 76/82/40 79/84/40
f 78/83/42 77/81/39 80/85/42
f 78/86/43 79/84/40 76/82/40
f 81/87/44 78/83/42 80/85/42
f 79/84/40 78/86/43 82/88/43
f 78/83/42 81/87/44 83/89/44
f 83/90/45 82/88/43 78/86/43
f 84/63/46 83/89/44 81/87/44
f 82/88/43 83/90/45 85/91/45
f 83/89/44 84/63/46 86/70/46
f 86/74/47 85/91/45 83/90/45
f 87/63/36 86/70/46 84/63/46
f 85/91/45 86/74/47 88/73/47
f 86/70/46 87/63/36 89/70/36
f 86/74/47 90/73/37 88/73/47
f 87/75/35 90/73/35 89/74/35
f 90/73/37 86/74/47 89/74/37
f 90/73/35 87/75/35 91/79/35
usemtl material_1_0
f 3//48 2//48 1//49
f 4//49 1//49 2//48
f 2//48 3//48 5//50
f 1//51 6//51 3//52
f 1//49 4//49 7//53
f 8//50 5//50 3//48
f 9//52 3//52 6//51
f 1//51 7//54 6//51
f 10//53 7//53 4//49
f 8//50 11//55 5//50
f 3//52 9//52 8//56
f 9//52 6//51 12//52
f 13//54 6//51 7//54
f 7//53 10//53 14//57
f 15//55 5//50 11//55
f 11//58 8//56 16//58
f 17//56 8//56 9//52
f 18//51 12//52 6//51
f 12//52 19//56 9//52
f 6//51 13//54 18//51
f 7//54 14//59 13//54
f 20//57 14//57 10//53
f 11//55 21//60 15//55
f 17//56 16//58 8//56
f 11//58 16//58 21//61
f 17//56 9//52 19//56
f 22//54 18//51 13//54
f 23//59 13//54 14//59
f 14//57 20//57 24//62
f 25//60 15//55 21//60
f 17//56 19//56 16//58
f 26//61 21//61 16//58
f 22//54 13//54 27//59
f 23//59 27//59 13//54
f 14//59 24//63 23//59
f 28//62 24//62 20//57
f 25//36 21//36 29//64
f 30//58 16//58 19//56
f 21//37 26//37 31//65
f 16//58 30//58 26//61
f 27//59 23//59 32//63
f 33//63 23//59 24//63
f 24//62 28//62 34//66
f 31//64 29//64 21//36
f 35//65 31//65 26//37
f 36//61 26//61 30//58
f 33//63 32//63 23//59
f 24//63 34//67 33//63
f 37//66 34//66 28//62
f 29//64 31//64 38//68
f 31//65 35//65 39//69
f 35//65 26//37 40//65
f 36//37 40//65 26//37
f 32//63 33//63 41//67
f 42//67 33//63 34//67
f 37//66 43//70 34//66
f 39//68 38//68 31//64
f 44//69 39//69 35//65
f 40//65 45//69 35//65
f 42//67 41//67 33//63
f 42//67 34//67 46//71
f 47//70 34//66 43//70
f 38//68 39//68 48//72
f 39//69 44//69 49//73
f 44//69 35//65 45//69
f 41//67 42//67 50//71
f 47//71 46//71 34//67
f 46//71 50//71 42//67
f 43//70 51//74 47//70
f 49//72 48//72 39//68
f 52//73 49//73 44//69
f 45//69 53//73 44//69
f 46//71 47//71 54//75
f 50//71 46//71 55//75
f 56//74 47//70 51//74
f 49//72 57//76 48//72
f 49//73 52//73 57//76
f 52//73 44//69 53//73
f 54//75 47//71 58//75
f 54//75 55//75 46//71
f 56//75 58//75 47//71
f 51//35 59//35 56//35
f 60//77 48//72 57//76
f 61//78 57//76 52//73
f 52//73 53//73 61//78
f 58//35 62//35 54//35
f 54//35 62//35 55//35
f 58//35 56//35 62//35
f 63//35 56//35 59//35
f 57//76 64//32 60//77
f 61//78 64//32 57//76
f 65//78 61//78 53//73
f 55//35 62//35 66//35
f 62//35 56//35 63//35
f 63//18 59//18 67//18
f 68//32 60//77 64//32
f 61//78 65//78 64//32
f 63//35 66//35 62//35
f 69//18 67//18 59//18
f 63//20 67//20 66//20
f 68//18 64//18 70//18
f 71//32 64//32 65//78
f 69//35 72//35 67//35
f 73//20 66//20 67//20
f 74//18 70//18 64//18
f 71//20 75//20 64//20
f 73//35 67//35 72//35
f 74//79 76//80 70//79
f 74//20 64//20 75//20
f 77//80 70//79 76//80
f 74//81 75//81 76//82
f 76//80 78//83 77//80
f 79//82 76//82 75//81
f 80//83 77//80 78//83
f 76//82 79//82 78//84
f 80//83 78//83 81//85
f 82//84 78//84 79//82
f 83//85 81//85 78//83
f 78//84 82//84 83//86
f 81//85 83//85 84//87
f 85//86 83//86 82//84
f 86//87 84//87 83//85
f 83//86 85//86 86//88
f 84//87 86//87 87//18
f 88//88 86//88 85//86
f 89//18 87//18 86//87
f 88//88 90//20 86//88
f 89//32 90//32 87//32
f 89//20 86//88 90//20
f 91//32 87//32 90//32
