# SSTK version 0.8.0
# 36
mtllib original-36.mtl
o DF_12_BR1/DF_12_BR/mesh24/mesh24-geometry#mesh24-geometry
v 0.285295 0.374949 0.485674
v 0.385414 0.374945 0.487316
v 0.285291 0.374945 0.487316
v 0.385411 0.374949 0.485674
v 0.385414 0.374945 0.495460
v 0.284970 0.374945 0.487316
v 0.285880 0.375534 0.484140
v 0.385414 0.471553 0.487316
v 0.285291 0.374945 0.495460
v 0.385414 0.471553 0.495460
v 0.284970 0.374949 0.485674
v 0.284970 0.374945 0.495460
v 0.384826 0.375534 0.484140
v 0.385411 0.471553 0.485674
v 0.285704 0.375357 0.500956
v 0.385002 0.471553 0.500956
v 0.286970 0.376624 0.482913
v 0.284970 0.375534 0.484140
v 0.385002 0.375357 0.500956
v 0.284970 0.375357 0.500956
v 0.383735 0.376624 0.482913
v 0.384826 0.471553 0.484140
v 0.288311 0.377965 0.505812
v 0.284970 0.377965 0.505812
v 0.382394 0.471553 0.505812
v 0.382281 0.378078 0.482151
v 0.284970 0.376624 0.482913
v 0.382394 0.377965 0.505812
v 0.288425 0.378078 0.482151
v 0.383735 0.471553 0.482913
v 0.378040 0.382319 0.509192
v 0.292665 0.382319 0.509192
v 0.290054 0.379708 0.481954
v 0.382281 0.471553 0.482151
v 0.284970 0.378078 0.482151
v 0.284970 0.382319 0.509192
v 0.378040 0.471553 0.509192
v 0.290167 0.379708 0.481954
v 0.284970 0.379708 0.481954
v 0.380651 0.379708 0.481954
v 0.372689 0.387670 0.510514
v 0.284970 0.387670 0.510514
v 0.290167 0.470192 0.481954
v 0.284970 0.470192 0.481954
v 0.380651 0.471553 0.481954
v 0.298016 0.387670 0.510514
v 0.372689 0.471553 0.510514
v 0.298016 0.387670 0.512962
v 0.284970 0.387670 0.512962
v 0.372689 0.471553 0.512962
v 0.290167 0.470192 0.486795
v 0.290167 0.471553 0.481954
v 0.372689 0.387670 0.512962
v 0.284970 0.470192 0.486795
v 0.298209 0.387862 0.513781
v 0.284970 0.387862 0.513781
v 0.372497 0.471553 0.513781
v 0.284970 0.471553 0.486795
v 0.290167 0.471553 0.486795
v 0.372497 0.387862 0.513781
v 0.298793 0.388446 0.514387
v 0.284970 0.388446 0.514387
v 0.371913 0.471553 0.514387
v 0.371913 0.388446 0.514387
v 0.371102 0.389257 0.514610
v 0.299604 0.389257 0.514610
v 0.284970 0.389257 0.514610
v 0.371102 0.471553 0.514610
v 0.284970 0.460755 0.514610
v 0.299604 0.460755 0.514610
v 0.299604 0.471553 0.514610
v 0.284970 0.460755 0.511881
v 0.299604 0.471553 0.511881
v 0.299604 0.460755 0.511881
v 0.295734 0.464625 0.510630
v 0.284970 0.464625 0.510630
v 0.295734 0.471553 0.510630
v 0.292602 0.467757 0.508035
v 0.284970 0.467757 0.508035
v 0.292602 0.471553 0.508035
v 0.284970 0.469705 0.504464
v 0.290654 0.471553 0.504464
v 0.290654 0.469705 0.504464
v 0.284970 0.470192 0.500426
v 0.290167 0.471553 0.500426
v 0.290167 0.470192 0.500426
v 0.284970 0.470192 0.498042
v 0.290167 0.471553 0.498042
v 0.290167 0.470192 0.498042
v 0.284970 0.471553 0.498042
vt 0.697539 0.533856
vt 0.745443 0.533854
vt 0.697537 0.533854
vt 0.745441 0.533856
vt 0.015317 0.808194
vt 0.015315 0.80835
vt 0.015317 0.808348
vt 0.697818 0.534136
vt 0.745443 0.580078
vt 0.015315 0.808194
vt 0.745161 0.534136
vt 0.015035 0.80863
vt 0.745441 0.580078
vt 0.697734 0.534051
vt 0.745245 0.580078
vt 0.69834 0.534657
vt 0.015035 0.808194
vt 0.745245 0.534051
vt 0.01512 0.808194
vt 0.01512 0.808545
vt 0.744639 0.534657
vt 0.014514 0.809151
vt 0.745161 0.580078
vt 0.698982 0.535299
vt 0.013872 0.808194
vt 0.743998 0.580078
vt 0.743944 0.535353
vt 0.014514 0.808194
vt 0.743998 0.535299
vt 0.013872 0.809793
vt 0.699036 0.535353
vt 0.744639 0.580078
vt 0.013818 0.809847
vt 0.741915 0.537382
vt 0.011789 0.811876
vt 0.699816 0.536133
vt 0.743944 0.580078
vt 0.013818 0.808194
vt 0.701065 0.537382
vt 0.011789 0.808194
vt 0.741915 0.580078
vt 0.69987 0.536133
vt 0.013038 0.808194
vt 0.013038 0.810627
vt 0.743164 0.536133
vt 0.739354 0.539943
vt 0.009228 0.808194
vt -0.030256 0.810681
vt 0.013038 0.810681
vt -0.030256 0.808194
vt 0.743164 0.580078
vt 0.703625 0.539943
vt 0.009228 0.814436
vt 0.739354 0.580078
vt 0.69987 0.579427
vt 0.69987 0.580078
vt -0.030256 0.533337
vt -0.030907 0.533337
vt 0.703717 0.540035
vt 0.009136 0.808194
vt 0.739262 0.580078
vt -0.030907 0.808194
vt 0.739262 0.540035
vt 0.009136 0.814529
vt -0.030907 0.810681
vt 0.703997 0.540314
vt 0.008857 0.808194
vt 0.738983 0.580078
vt 0.738983 0.540314
vt 0.008857 0.814808
vt 0.738595 0.540702
vt 0.008469 0.815196
vt 0.704385 0.540702
vt 0.008469 0.808194
vt 0.738595 0.580078
vt -0.025741 0.808194
vt 0.704385 0.574912
vt -0.025741 0.815196
vt 0.704385 0.580078
vt -0.027593 0.813344
vt 0.702533 0.576764
vt -0.027593 0.808194
vt 0.702533 0.580078
vt -0.029091 0.811846
vt 0.701035 0.578262
vt -0.029091 0.808194
vt 0.701035 0.580078
vt -0.030023 0.808194
vt 0.700103 0.580078
vt -0.030023 0.810914
vt 0.700103 0.579194
vn 0 -0.9832544340282681 -0.18223808044355147
vn 0 -0.999999367186835 -0.0011250004130858244
vn 0 -0.9992990646416606 0.03743500242155786
vn 0 -0.8549788298549548 -0.5186628967835006
vn 0.9832544340282681 0 -0.18223808044355125
vn 0.999999367186835 0 -0.0011250004130856023
vn 0.9992990646416606 0 0.03743500242155808
vn 0 -0.9599883063591972 0.2800400893686477
vn 0.9599883063591971 0 0.28004008936864794
vn 0 -0.6158659605362342 -0.7878509495156947
vn 0.8549788298549549 0 -0.5186628967835004
vn 0 -0.7637257763211732 0.6455408109350032
vn 0.7637257763211729 0 0.6455408109350033
vn 0 -0.2969149752905881 -0.9549039205324217
vn 0.6158659605362344 0 -0.7878509495156946
vn 0.2969149752905883 0 -0.9549039205324216
vn 0 -0.4360179781624764 0.8999379549275086
vn 0.43601797816247617 0 0.8999379549275087
vn 0 -0.12015698830427957 -0.9927549033682206
vn 0.12015698830427979 0 -0.9927549033682206
vn 0 -0.2398589385067724 0.9708077511116219
vn 0.23985893850677217 0 0.9708077511116219
vn 0 0 -1
vn 0 -1 0
vn 0 -0.9933549531603351 0.11509099457311424
vn 0.9933549531603351 0 0.11509099457311446
vn 1 0 0
vn 0 1 0
vn -1 0 0
vn 0 -0.8781981109107202 0.4782970604058134
vn 0.8781981109107201 0 0.4782970604058136
vn 0 -0.5107362628083497 0.85973744239306
vn 0.5107362628083495 0 0.8597374423930602
vn 0.08969600004861523 -0.08969600004861546 0.9919220005376217
vn 0 -0.1336090164314385 0.9910341218788704
vn 0.13360901643143827 0 0.9910341218788704
vn 0 0 1
vn 0 0.48148786630215284 0.8764527566297001
vn 0 0.3075990241377576 0.9515160746668968
vn -0.3075990241377578 0 0.9515160746668967
vn -0.48148786630215307 0 0.8764527566297
vn 0 0.7718322552835606 0.6358262102995541
vn -0.7718322552835607 0 0.6358262102995539
vn 0 0.9524214534017693 0.3047841450929842
vn -0.9524214534017694 0 0.30478414509298396
vn 0 0.9981997002985706 0.05997798199209366
vn -0.9981997002985706 0 0.059977981992093435
vn 0 0.999999367186835 0.0011250004130858244
vn 0 0.9832544340282681 0.18223808044355147
vn 0 0.9992990646416606 -0.03743500242155786
vn 0 0.8549788298549548 0.5186628967835006
vn -0.999999367186835 0 0.0011250004130856023
vn -0.9832544340282681 0 0.18223808044355125
vn -0.9992990646416606 0 -0.03743500242155808
vn 0 0.9599883063591972 -0.2800400893686477
vn -0.9599883063591971 0 -0.28004008936864794
vn 0 0.6158659605362342 0.7878509495156947
vn -0.8549788298549549 0 0.5186628967835004
vn 0 0.7637257763211732 -0.6455408109350032
vn -0.7637257763211729 0 -0.6455408109350033
vn 0 0.2969149752905881 0.9549039205324217
vn -0.6158659605362344 0 0.7878509495156946
vn -0.2969149752905883 0 0.9549039205324216
vn 0 0.4360179781624764 -0.8999379549275086
vn -0.43601797816247617 0 -0.8999379549275087
vn 0 0.12015698830427957 0.9927549033682206
vn -0.12015698830427979 0 0.9927549033682206
vn 0 0.2398589385067724 -0.9708077511116219
vn -0.23985893850677217 0 -0.9708077511116219
vn 0 0.9933549531603351 -0.11509099457311424
vn -0.9933549531603351 0 -0.11509099457311446
vn 0 0.8781981109107202 -0.4782970604058134
vn -0.8781981109107201 0 -0.4782970604058136
vn 0 0.5107362628083497 -0.85973744239306
vn -0.5107362628083495 0 -0.8597374423930602
vn -0.08969600004861523 0.08969600004861546 -0.9919220005376217
vn 0 0.1336090164314385 -0.9910341218788704
vn -0.13360901643143827 0 -0.9910341218788704
vn 0 -0.3075990241377576 -0.9515160746668968
vn 0 -0.48148786630215284 -0.8764527566297001
vn 0.3075990241377578 0 -0.9515160746668967
vn 0.48148786630215307 0 -0.8764527566297
vn 0 -0.7718322552835606 -0.6358262102995541
vn 0.7718322552835607 0 -0.6358262102995539
vn 0 -0.9524214534017693 -0.3047841450929842
vn 0.9524214534017694 0 -0.30478414509298396
vn 0 -0.9981997002985706 -0.05997798199209366
vn 0.9981997002985706 0 -0.059977981992093435
usemtl material_0_0
f 1/1/1 2/2/2 3/3/2
f 2/2/2 1/1/1 4/4/1
f 5/2/3 3/3/2 2/2/2
f 6/5/2 1/6/1 3/7/2
f 7/8/4 4/4/1 1/1/1
f 4/4/5 8/9/6 2/2/6
f 3/3/2 5/2/3 9/3/3
f 2/2/6 10/9/7 5/2/7
f 1/6/1 6/5/2 11/10/1
f 3/7/2 12/5/3 6/5/2
f 4/4/1 7/8/4 13/11/4
f 11/10/1 7/12/4 1/6/1
f 8/9/6 4/4/5 14/13/5
f 10/9/7 2/2/6 8/9/6
f 5/2/3 15/14/8 9/3/3
f 12/5/3 3/7/2 9/7/3
f 16/15/9 5/2/7 10/9/7
f 17/16/10 13/11/4 7/8/4
f 13/11/11 14/13/5 4/4/5
f 7/12/4 11/10/1 18/17/4
f 15/14/8 5/2/3 19/18/8
f 20/19/8 9/7/3 15/20/8
f 9/7/3 20/19/8 12/5/3
f 5/2/7 16/15/9 19/18/9
f 13/11/4 17/16/10 21/21/10
f 18/17/4 17/22/10 7/12/4
f 14/13/5 13/11/11 22/23/11
f 19/18/8 23/24/12 15/14/8
f 15/20/8 24/25/12 20/19/8
f 25/26/13 19/18/9 16/15/9
f 17/16/10 26/27/14 21/21/10
f 21/21/15 22/23/11 13/11/11
f 17/22/10 18/17/4 27/28/10
f 23/24/12 19/18/8 28/29/12
f 24/25/12 15/20/8 23/30/12
f 19/18/9 25/26/13 28/29/13
f 26/27/14 17/16/10 29/31/14
f 26/27/16 30/32/15 21/21/15
f 22/23/11 21/21/15 30/32/15
f 27/28/10 29/33/14 17/22/10
f 31/34/17 23/24/12 28/29/12
f 32/35/17 24/25/12 23/30/12
f 25/26/13 31/34/18 28/29/13
f 33/36/19 26/27/14 29/31/14
f 30/32/15 26/27/16 34/37/16
f 29/33/14 27/28/10 35/38/14
f 23/24/12 31/34/17 32/39/17
f 24/25/12 32/35/17 36/40/17
f 31/34/18 25/26/13 37/41/18
f 26/27/14 33/36/19 38/42/19
f 29/33/14 39/43/19 33/44/19
f 40/45/20 34/37/16 26/27/16
f 39/43/19 29/33/14 35/38/14
f 41/46/21 32/39/17 31/34/17
f 32/35/17 42/47/21 36/40/17
f 37/41/18 41/46/22 31/34/18
f 33/44/23 43/48/23 38/49/23
f 40/45/19 26/27/14 38/42/19
f 44/50/23 33/44/23 39/43/23
f 34/37/16 40/45/20 45/51/20
f 32/39/17 41/46/21 46/52/21
f 42/47/21 32/35/17 46/53/21
f 41/46/22 37/41/18 47/54/22
f 43/48/23 33/44/23 44/50/23
f 43/55/23 40/45/23 38/42/23
f 40/45/23 43/55/23 45/51/23
f 41/46/24 48/52/25 46/52/24
f 46/53/24 49/47/25 42/47/24
f 50/54/26 41/46/27 47/54/27
f 44/50/28 51/48/28 43/48/28
f 45/51/23 43/55/23 52/56/23
f 48/52/25 41/46/24 53/46/25
f 49/47/25 46/53/24 48/53/25
f 41/46/27 50/54/26 53/46/26
f 51/48/28 44/50/28 54/50/28
f 51/57/29 52/58/29 43/57/29
f 53/46/25 55/59/30 48/52/25
f 48/53/25 56/60/30 49/47/25
f 57/61/31 53/46/26 50/54/26
f 58/62/23 51/48/23 54/50/23
f 52/58/29 51/57/29 59/58/29
f 55/59/30 53/46/25 60/63/30
f 56/60/30 48/53/25 55/64/30
f 53/46/26 57/61/31 60/63/31
f 51/48/23 58/62/23 59/65/23
f 60/63/30 61/66/32 55/59/30
f 55/64/30 62/67/32 56/60/30
f 63/68/33 60/63/31 57/61/31
f 61/66/32 60/63/30 64/69/32
f 62/67/32 55/64/30 61/70/32
f 60/63/31 63/68/33 64/69/33
f 65/71/34 61/66/32 64/69/32
f 66/72/35 62/67/32 61/70/32
f 63/68/33 65/71/34 64/69/33
f 61/66/32 65/71/34 66/73/35
f 62/67/32 66/72/35 67/74/35
f 65/71/34 63/68/33 68/75/36
f 68/75/36 66/73/35 65/71/34
f 66/72/35 69/76/37 67/74/35
f 66/73/35 68/75/36 70/77/37
f 69/76/37 66/72/35 70/78/37
f 70/77/37 68/75/36 71/79/37
f 70/78/28 72/76/28 69/76/28
f 73/79/29 70/77/29 71/79/29
f 72/76/28 70/78/28 74/78/28
f 70/77/29 73/79/29 74/77/29
f 75/80/38 72/76/39 74/78/39
f 73/79/40 75/81/41 74/77/40
f 72/76/39 75/80/38 76/82/38
f 75/81/41 73/79/40 77/83/41
f 78/84/42 76/82/38 75/80/38
f 77/83/41 78/85/43 75/81/41
f 76/82/38 78/84/42 79/86/42
f 78/85/43 77/83/41 80/87/43
f 78/84/42 81/88/44 79/86/42
f 82/89/45 78/85/43 80/87/43
f 81/88/44 78/84/42 83/90/44
f 78/85/43 82/89/45 83/91/45
f 83/90/44 84/50/46 81/88/44
f 85/56/47 83/91/45 82/89/45
f 84/50/46 83/90/44 86/48/46
f 83/91/45 85/56/47 86/55/47
f 86/48/46 87/50/28 84/50/46
f 88/56/29 86/55/47 85/56/47
f 87/50/28 86/48/46 89/48/28
f 86/55/47 88/56/29 89/55/29
f 88/65/37 87/50/37 89/48/37
f 87/50/37 88/65/37 90/62/37
usemtl material_1_0
f 3//48 2//48 1//49
f 4//49 1//49 2//48
f 2//48 3//48 5//50
f 3//48 1//49 6//48
f 1//49 4//49 7//51
f 2//52 8//52 4//53
f 9//50 5//50 3//48
f 5//54 10//54 2//52
f 11//49 6//48 1//49
f 6//48 12//50 3//48
f 13//51 7//51 4//49
f 1//49 7//51 11//49
f 14//53 4//53 8//52
f 8//52 2//52 10//54
f 9//50 15//55 5//50
f 9//50 3//48 12//50
f 10//54 5//54 16//56
f 7//51 13//51 17//57
f 4//53 14//53 13//58
f 18//51 11//49 7//51
f 19//55 5//50 15//55
f 15//55 9//50 20//55
f 12//50 20//55 9//50
f 19//56 16//56 5//54
f 21//57 17//57 13//51
f 7//51 17//57 18//51
f 22//58 13//58 14//53
f 15//55 23//59 19//55
f 20//55 24//59 15//55
f 16//56 19//56 25//60
f 21//57 26//61 17//57
f 13//58 22//58 21//62
f 27//57 18//51 17//57
f 28//59 19//55 23//59
f 23//59 15//55 24//59
f 28//60 25//60 19//56
f 29//61 17//57 26//61
f 21//62 30//62 26//63
f 30//62 21//62 22//58
f 17//57 29//61 27//57
f 28//59 23//59 31//64
f 23//59 24//59 32//64
f 28//60 31//65 25//60
f 29//61 26//61 33//66
f 34//63 26//63 30//62
f 35//61 27//57 29//61
f 32//64 31//64 23//59
f 36//64 32//64 24//59
f 37//65 25//60 31//65
f 38//66 33//66 26//61
f 33//66 39//66 29//61
f 26//63 34//63 40//67
f 35//61 29//61 39//66
f 31//64 32//64 41//68
f 36//64 42//68 32//64
f 31//65 41//69 37//65
f 38//37 43//37 33//37
f 38//66 26//61 40//66
f 39//37 33//37 44//37
f 45//67 40//67 34//63
f 46//68 41//68 32//64
f 46//68 32//64 42//68
f 47//69 37//65 41//69
f 44//37 33//37 43//37
f 38//37 40//37 43//37
f 45//37 43//37 40//37
f 46//28 48//70 41//28
f 42//28 49//70 46//28
f 47//29 41//29 50//71
f 43//24 51//24 44//24
f 52//37 43//37 45//37
f 53//70 41//28 48//70
f 48//70 46//28 49//70
f 53//71 50//71 41//29
f 54//24 44//24 51//24
f 43//27 52//27 51//27
f 48//70 55//72 53//70
f 49//70 56//72 48//70
f 50//71 53//71 57//73
f 54//37 51//37 58//37
f 59//27 51//27 52//27
f 60//72 53//70 55//72
f 55//72 48//70 56//72
f 60//73 57//73 53//71
f 59//37 58//37 51//37
f 55//72 61//74 60//72
f 56//72 62//74 55//72
f 57//73 60//73 63//75
f 64//74 60//72 61//74
f 61//74 55//72 62//74
f 64//75 63//75 60//73
f 64//74 61//74 65//76
f 61//74 62//74 66//77
f 64//75 65//76 63//75
f 66//77 65//76 61//74
f 67//77 66//77 62//74
f 68//78 63//75 65//76
f 65//76 66//77 68//78
f 67//77 69//23 66//77
f 70//23 68//78 66//77
f 70//23 66//77 69//23
f 71//23 68//78 70//23
f 69//24 72//24 70//24
f 71//27 70//27 73//27
f 74//24 70//24 72//24
f 74//27 73//27 70//27
f 74//79 72//79 75//80
f 74//81 75//82 73//81
f 76//80 75//80 72//79
f 77//82 73//81 75//82
f 75//80 76//80 78//83
f 75//82 78//84 77//82
f 79//83 78//83 76//80
f 80//84 77//82 78//84
f 79//83 81//85 78//83
f 80//84 78//84 82//86
f 83//85 78//83 81//85
f 83//86 82//86 78//84
f 81//85 84//87 83//85
f 82//86 83//86 85//88
f 86//87 83//85 84//87
f 86//88 85//88 83//86
f 84//87 87//24 86//87
f 85//88 86//88 88//27
f 89//24 86//87 87//24
f 89//27 88//27 86//88
f 89//23 87//23 88//23
f 90//23 88//23 87//23
