# SSTK version 0.8.0
# 49
mtllib original-49.mtl
o LT_11_BL1/LT_11_BL/mesh36/mesh36-geometry#mesh36-geometry
v -0.282293 -0.615210 0.500956
v -0.378984 -0.612603 0.505812
v -0.381591 -0.615210 0.500956
v -0.284901 -0.612603 0.505812
v -0.381591 -0.511994 0.500956
v -0.281881 -0.615623 0.495460
v -0.281559 -0.612603 0.505812
v -0.289255 -0.608249 0.509192
v -0.378984 -0.511994 0.505812
v -0.382004 -0.511994 0.495460
v -0.382004 -0.615623 0.495460
v -0.281559 -0.615210 0.500956
v -0.281559 -0.608249 0.509192
v -0.374630 -0.608249 0.509192
v -0.281881 -0.615623 0.487316
v -0.281559 -0.615623 0.495460
v -0.294606 -0.602898 0.510514
v -0.281559 -0.602898 0.510514
v -0.374630 -0.511994 0.509192
v -0.382004 -0.511994 0.487316
v -0.382004 -0.615623 0.487316
v -0.281559 -0.615623 0.487316
v -0.369279 -0.602898 0.510514
v -0.382000 -0.615619 0.485674
v -0.281559 -0.615619 0.485674
v -0.369279 -0.602898 0.512962
v -0.281559 -0.602898 0.512962
v -0.369279 -0.511994 0.510514
v -0.382000 -0.511994 0.485674
v -0.281884 -0.615619 0.485674
v -0.294606 -0.602898 0.512962
v -0.381415 -0.615034 0.484140
v -0.381415 -0.511994 0.484140
v -0.281559 -0.615034 0.484140
v -0.369086 -0.602706 0.513781
v -0.369279 -0.511994 0.512962
v -0.281559 -0.602706 0.513781
v -0.282469 -0.615034 0.484140
v -0.294798 -0.602706 0.513781
v -0.380325 -0.613944 0.482913
v -0.380325 -0.511994 0.482913
v -0.281559 -0.613944 0.482913
v -0.368503 -0.602122 0.514387
v -0.369086 -0.511994 0.513781
v -0.281559 -0.602122 0.514387
v -0.283560 -0.613944 0.482913
v -0.295382 -0.602122 0.514387
v -0.285014 -0.612490 0.482151
v -0.378870 -0.612490 0.482151
v -0.296193 -0.601310 0.514610
v -0.368503 -0.511994 0.514387
v -0.281559 -0.601310 0.514610
v -0.378870 -0.511994 0.482151
v -0.281559 -0.612490 0.482151
v -0.367691 -0.601310 0.514610
v -0.377241 -0.610860 0.481954
v -0.286644 -0.610860 0.481954
v -0.296193 -0.529812 0.514610
v -0.281559 -0.529812 0.514610
v -0.367691 -0.511994 0.514610
v -0.377241 -0.511994 0.481954
v -0.281559 -0.610860 0.481954
v -0.286757 -0.610860 0.481954
v -0.286757 -0.520376 0.481954
v -0.296193 -0.511994 0.514610
v -0.296193 -0.529812 0.511881
v -0.281559 -0.520376 0.481954
v -0.281559 -0.529812 0.511881
v -0.286757 -0.511994 0.481954
v -0.281559 -0.520376 0.486795
v -0.296193 -0.511994 0.511881
v -0.281559 -0.525942 0.510630
v -0.286757 -0.511994 0.486795
v -0.286757 -0.520376 0.486795
v -0.292323 -0.525942 0.510630
v -0.292323 -0.511994 0.510630
v -0.281559 -0.522811 0.508035
v -0.281559 -0.511994 0.486795
v -0.289192 -0.522811 0.508035
v -0.289192 -0.511994 0.508035
v -0.287244 -0.520863 0.504464
v -0.281559 -0.520863 0.504464
v -0.287244 -0.511994 0.504464
v -0.286757 -0.520376 0.500426
v -0.281559 -0.520376 0.500426
v -0.286757 -0.511994 0.500426
v -0.286757 -0.520376 0.498042
v -0.281559 -0.520376 0.498042
v -0.286757 -0.511994 0.498042
v -0.281559 -0.511994 0.498042
vt 0.047709 0.000197
vt 0.001445 0.001445
vt 0.000197 0.000197
vt 0.046461 0.001445
vt 0.000197 0.049583
vt 0.047906 0
vt 0.548974 -0.118824
vt 0.547726 -0.118473
vt 0.547726 -0.120072
vt 0.044378 0.003528
vt 0.001445 0.049583
vt 0 0.049583
vt 0 0
vt 0.549171 -0.118627
vt 0.548974 -0.118473
vt 0.545643 -0.118473
vt 0.003528 0.003528
vt 0.545643 -0.122155
vt 0.549171 -0.118473
vt 0.041817 0.006088
vt 0.543083 -0.118473
vt 0.003528 0.049583
vt 0.006088 0.006088
vt 0.543083 -0.124715
vt 0.000002 0.000002
vt 0.549169 -0.118473
vt 0.006088 0.049583
vt 0.000002 0.049583
vt 0.047904 0.000002
vt 0.549169 -0.118628
vt 0.000282 0.000282
vt 0.000282 0.049583
vt 0.548889 -0.118473
vt 0.006181 0.006181
vt 0.54299 -0.118473
vt 0.047624 0.000282
vt 0.548889 -0.118908
vt 0.041725 0.006181
vt 0.54299 -0.124807
vt 0.000803 0.000803
vt 0.000803 0.049583
vt 0.548368 -0.118473
vt 0.00646 0.00646
vt 0.006181 0.049583
vt 0.542711 -0.118473
vt 0.047103 0.000803
vt 0.548368 -0.11943
vt 0.041446 0.00646
vt 0.542711 -0.125087
vt 0.046407 0.001499
vt 0.001499 0.001499
vt 0.547672 -0.120126
vt 0.041058 0.006848
vt 0.00646 0.049583
vt 0.542323 -0.118473
vt 0.001499 0.049583
vt 0.547672 -0.118473
vt 0.006848 0.006848
vt 0.542323 -0.125475
vt 0.002279 0.002279
vt 0.546892 -0.120906
vt 0.041058 0.041058
vt 0.508113 -0.118473
vt 0.006848 0.049583
vt 0.045627 0.002279
vt 0.002279 0.049583
vt 0.546892 -0.118473
vt 0.508113 -0.125475
vt 0.045573 0.002279
vt 0.503598 -0.12096
vt 0.041058 0.049583
vt 0.546892 -0.12096
vt 0.045573 0.045573
vt 0.503598 -0.118473
vt 0.045573 0.049583
vt 0.506261 -0.118473
vt 0.04291 0.04291
vt 0.506261 -0.123623
vt 0.04806 0.045573
vt 0.04291 0.049583
vt 0.504763 -0.118473
vt 0.04806 0.049583
vt 0.044408 0.044408
vt 0.504763 -0.122125
vt 0.044408 0.049583
vt 0.503831 -0.121193
vt 0.04534 0.04534
vt 0.503831 -0.118473
vt 0.04534 0.049583
vn 0 -0.9599883063591972 0.2800400893686477
vn 0 -0.7637257763211732 0.6455408109350032
vn -0.7637257763211729 0 0.6455408109350033
vn -0.9599883063591971 0 0.28004008936864794
vn 0 -0.9992990646416606 0.03743500242155786
vn 0 -0.4360179781624764 0.8999379549275086
vn -0.9992990646416606 0 0.03743500242155808
vn -0.43601797816247617 0 0.8999379549275087
vn 0 -0.999999367186835 -0.0011250004130858244
vn 0 -0.2398589385067724 0.9708077511116219
vn -0.999999367186835 0 -0.0011250004130856023
vn -0.23985893850677217 0 0.9708077511116219
vn 0 -0.9832544340282681 -0.18223808044355147
vn 0 -1 0
vn 0 -0.9933549531603351 0.11509099457311424
vn -0.9832544340282681 0 -0.18223808044355125
vn -0.9933549531603351 0 0.11509099457311446
vn -1 0 0
vn 0 -0.8549788298549548 -0.5186628967835006
vn -0.8549788298549549 0 -0.5186628967835004
vn 0 -0.8781981109107202 0.4782970604058134
vn -0.8781981109107201 0 0.4782970604058136
vn 0 -0.6158659605362342 -0.7878509495156947
vn -0.6158659605362344 0 -0.7878509495156946
vn 0 -0.5107362628083497 0.85973744239306
vn -0.5107362628083495 0 0.8597374423930602
vn 0 -0.2969149752905881 -0.9549039205324217
vn -0.2969149752905883 0 -0.9549039205324216
vn 0 -0.1336090164314385 0.9910341218788704
vn -0.08969600004861523 -0.08969600004861546 0.9919220005376217
vn 0 -0.12015698830427957 -0.9927549033682206
vn -0.12015698830427979 0 -0.9927549033682206
vn 0 0 1
vn -0.13360901643143827 0 0.9910341218788704
vn 0 0 -1
vn 0 1 0
vn 1 0 0
vn 0 0.48148786630215284 0.8764527566297001
vn 0 0.3075990241377576 0.9515160746668968
vn 0.48148786630215307 0 0.8764527566297
vn 0.3075990241377578 0 0.9515160746668967
vn 0 0.7718322552835606 0.6358262102995541
vn 0.7718322552835607 0 0.6358262102995539
vn 0 0.9524214534017693 0.3047841450929842
vn 0.9524214534017694 0 0.30478414509298396
vn 0 0.9981997002985706 0.05997798199209366
vn 0.9981997002985706 0 0.059977981992093435
vn 0 0.9599883063591972 -0.2800400893686477
vn 0 0.7637257763211732 -0.6455408109350032
vn 0.9599883063591971 0 -0.28004008936864794
vn 0.7637257763211729 0 -0.6455408109350033
vn 0 0.9992990646416606 -0.03743500242155786
vn 0 0.4360179781624764 -0.8999379549275086
vn 0.9992990646416606 0 -0.03743500242155808
vn 0.43601797816247617 0 -0.8999379549275087
vn 0 0.999999367186835 0.0011250004130858244
vn 0 0.2398589385067724 -0.9708077511116219
vn 0.999999367186835 0 0.0011250004130856023
vn 0.23985893850677217 0 -0.9708077511116219
vn 0 0.9832544340282681 0.18223808044355147
vn 0 0.9933549531603351 -0.11509099457311424
vn 0.9832544340282681 0 0.18223808044355125
vn 0.9933549531603351 0 -0.11509099457311446
vn 0 0.8549788298549548 0.5186628967835006
vn 0.8549788298549549 0 0.5186628967835004
vn 0 0.8781981109107202 -0.4782970604058134
vn 0.8781981109107201 0 -0.4782970604058136
vn 0 0.6158659605362342 0.7878509495156947
vn 0.6158659605362344 0 0.7878509495156946
vn 0 0.5107362628083497 -0.85973744239306
vn 0.5107362628083495 0 -0.8597374423930602
vn 0 0.2969149752905881 0.9549039205324217
vn 0.2969149752905883 0 0.9549039205324216
vn 0 0.1336090164314385 -0.9910341218788704
vn 0.08969600004861523 0.08969600004861546 -0.9919220005376217
vn 0 0.12015698830427957 0.9927549033682206
vn 0.12015698830427979 0 0.9927549033682206
vn 0.13360901643143827 0 -0.9910341218788704
vn 0 -0.3075990241377576 -0.9515160746668968
vn 0 -0.48148786630215284 -0.8764527566297001
vn -0.3075990241377578 0 -0.9515160746668967
vn -0.48148786630215307 0 -0.8764527566297
vn 0 -0.7718322552835606 -0.6358262102995541
vn -0.7718322552835607 0 -0.6358262102995539
vn 0 -0.9524214534017693 -0.3047841450929842
vn -0.9524214534017694 0 -0.30478414509298396
vn 0 -0.9981997002985706 -0.05997798199209366
vn -0.9981997002985706 0 -0.059977981992093435
usemtl material_0_0
f 1/1/1 2/2/2 3/3/1
f 2/2/2 1/1/1 4/4/2
f 2/2/3 5/5/4 3/3/4
f 3/3/1 6/6/5 1/1/1
f 1/7/1 7/8/2 4/9/2
f 8/10/6 2/2/2 4/4/2
f 5/5/4 2/2/3 9/11/3
f 10/12/7 3/3/4 5/5/4
f 6/6/5 3/3/1 11/13/5
f 6/14/5 12/15/1 1/7/1
f 7/8/2 1/7/1 12/15/1
f 13/16/6 4/9/2 7/8/2
f 2/2/2 8/10/6 14/17/6
f 4/9/2 13/16/6 8/18/6
f 14/17/8 9/11/3 2/2/3
f 3/3/4 10/12/7 11/13/7
f 11/13/5 15/6/9 6/6/5
f 12/15/1 6/14/5 16/19/5
f 17/20/10 14/17/6 8/10/6
f 18/21/10 8/18/6 13/16/6
f 9/11/3 14/17/8 19/22/8
f 20/12/11 11/13/7 10/12/7
f 15/6/9 11/13/5 21/13/9
f 22/19/9 6/14/5 15/14/9
f 6/14/5 22/19/9 16/19/5
f 14/17/6 17/20/10 23/23/10
f 8/18/6 18/21/10 17/24/10
f 23/23/12 19/22/8 14/17/8
f 11/13/7 20/12/11 21/13/11
f 24/25/13 15/6/9 21/13/9
f 15/14/9 25/26/13 22/19/9
f 17/20/14 26/23/15 23/23/14
f 27/21/15 17/24/14 18/21/14
f 19/22/8 23/23/12 28/27/12
f 29/28/16 21/13/11 20/12/11
f 15/6/9 24/25/13 30/29/13
f 21/13/11 29/28/16 24/25/16
f 25/26/13 15/14/9 30/30/13
f 26/23/15 17/20/14 31/20/15
f 26/23/17 28/27/18 23/23/18
f 17/24/14 27/21/15 31/24/15
f 32/31/19 30/29/13 24/25/13
f 33/32/20 24/25/16 29/28/16
f 30/30/13 34/33/19 25/26/13
f 31/20/15 35/34/21 26/23/15
f 28/27/18 26/23/17 36/27/17
f 37/35/21 31/24/15 27/21/15
f 30/29/13 32/31/19 38/36/19
f 24/25/16 33/32/20 32/31/20
f 34/33/19 30/30/13 38/37/19
f 35/34/21 31/20/15 39/38/21
f 35/34/22 36/27/17 26/23/17
f 31/24/15 37/35/21 39/39/21
f 40/40/23 38/36/19 32/31/19
f 41/41/24 32/31/20 33/32/20
f 38/37/19 42/42/23 34/33/19
f 39/38/21 43/43/25 35/34/21
f 36/27/17 35/34/22 44/44/22
f 45/45/25 39/39/21 37/35/21
f 38/36/19 40/40/23 46/46/23
f 32/31/20 41/41/24 40/40/24
f 42/42/23 38/37/19 46/47/23
f 43/43/25 39/38/21 47/48/25
f 43/43/26 44/44/22 35/34/22
f 39/39/21 45/45/25 47/49/25
f 40/40/23 48/50/27 46/46/23
f 41/41/24 49/51/28 40/40/24
f 48/52/27 42/42/23 46/47/23
f 50/53/29 43/43/25 47/48/25
f 44/44/22 43/43/26 51/54/26
f 52/55/29 47/49/25 45/45/25
f 48/50/27 40/40/23 49/51/27
f 49/51/28 41/41/24 53/56/28
f 42/42/23 48/52/27 54/57/27
f 43/43/25 50/53/29 55/58/30
f 47/49/25 52/55/29 50/59/29
f 55/58/30 51/54/26 43/43/26
f 56/60/31 48/50/27 49/51/27
f 53/56/28 56/60/32 49/51/28
f 57/61/31 54/57/27 48/52/27
f 58/62/33 55/58/30 50/53/29
f 59/63/33 50/59/29 52/55/29
f 51/54/26 55/58/30 60/64/34
f 48/50/27 56/60/31 57/65/31
f 56/60/32 53/56/28 61/66/32
f 54/57/27 57/61/31 62/67/31
f 55/58/30 58/62/33 60/64/34
f 50/59/29 59/63/33 58/68/33
f 57/65/31 56/60/31 63/69/31
f 61/66/35 63/69/35 56/60/35
f 57/61/35 64/70/35 62/67/35
f 60/64/34 58/62/33 65/71/33
f 59/63/36 66/68/36 58/68/36
f 64/70/35 57/61/35 63/72/35
f 63/69/35 61/66/35 64/73/35
f 62/67/35 64/70/35 67/74/35
f 66/62/37 65/71/37 58/62/37
f 66/68/36 59/63/36 68/63/36
f 64/73/35 61/66/35 69/75/35
f 64/70/36 70/74/36 67/74/36
f 65/71/37 66/62/37 71/71/37
f 72/76/38 66/68/39 68/63/39
f 73/75/37 64/73/37 69/75/37
f 70/74/36 64/70/36 74/70/36
f 75/77/40 71/71/41 66/62/41
f 66/68/39 72/76/38 75/78/38
f 64/73/37 73/75/37 74/73/37
f 73/75/35 70/79/35 74/73/35
f 71/71/41 75/77/40 76/80/40
f 77/81/42 75/78/38 72/76/38
f 70/79/35 73/75/35 78/82/35
f 79/83/43 76/80/40 75/77/40
f 75/78/38 77/81/42 79/84/42
f 76/80/40 79/83/43 80/85/43
f 77/81/42 81/86/44 79/84/42
f 81/87/45 80/85/43 79/83/43
f 81/86/44 77/81/42 82/88/44
f 80/85/43 81/87/45 83/89/45
f 82/88/44 84/70/46 81/86/44
f 84/73/47 83/89/45 81/87/45
f 84/70/46 82/88/44 85/74/46
f 83/89/45 84/73/47 86/75/47
f 85/74/46 87/70/36 84/70/46
f 87/73/37 86/75/47 84/73/47
f 87/70/36 85/74/46 88/74/36
f 86/75/47 87/73/37 89/75/37
f 90/82/33 87/73/33 88/79/33
f 87/73/33 90/82/33 89/75/33
usemtl material_1_0
f 3//48 2//49 1//48
f 4//49 1//48 2//49
f 3//50 5//50 2//51
f 1//48 6//52 3//48
f 4//49 7//49 1//48
f 4//49 2//49 8//53
f 9//51 2//51 5//50
f 5//50 3//50 10//54
f 11//52 3//48 6//52
f 1//48 12//48 6//52
f 12//48 1//48 7//49
f 7//49 4//49 13//53
f 14//53 8//53 2//49
f 8//53 13//53 4//49
f 2//51 9//51 14//55
f 11//54 10//54 3//50
f 6//52 15//56 11//52
f 16//52 6//52 12//48
f 8//53 14//53 17//57
f 13//53 8//53 18//57
f 19//55 14//55 9//51
f 10//54 11//54 20//58
f 21//56 11//52 15//56
f 15//56 6//52 22//56
f 16//52 22//56 6//52
f 23//57 17//57 14//53
f 17//57 18//57 8//53
f 14//55 19//55 23//59
f 21//58 20//58 11//54
f 21//56 15//56 24//60
f 22//56 25//60 15//56
f 23//36 26//61 17//36
f 18//36 17//36 27//61
f 28//59 23//59 19//55
f 20//58 21//58 29//62
f 30//60 24//60 15//56
f 24//62 29//62 21//58
f 30//60 15//56 25//60
f 31//61 17//36 26//61
f 23//37 28//37 26//63
f 31//61 27//61 17//36
f 24//60 30//60 32//64
f 29//62 24//62 33//65
f 25//60 34//64 30//60
f 26//61 35//66 31//61
f 36//63 26//63 28//37
f 27//61 31//61 37//66
f 38//64 32//64 30//60
f 32//65 33//65 24//62
f 38//64 30//60 34//64
f 39//66 31//61 35//66
f 26//63 36//63 35//67
f 39//66 37//66 31//61
f 32//64 38//64 40//68
f 33//65 32//65 41//69
f 34//64 42//68 38//64
f 35//66 43//70 39//66
f 44//67 35//67 36//63
f 37//66 39//66 45//70
f 46//68 40//68 38//64
f 40//69 41//69 32//65
f 46//68 38//64 42//68
f 47//70 39//66 43//70
f 35//67 44//67 43//71
f 47//70 45//70 39//66
f 46//68 48//72 40//68
f 40//69 49//73 41//69
f 46//68 42//68 48//72
f 47//70 43//70 50//74
f 51//71 43//71 44//67
f 45//70 47//70 52//74
f 49//72 40//68 48//72
f 53//73 41//69 49//73
f 54//72 48//72 42//68
f 55//75 50//74 43//70
f 50//74 52//74 47//70
f 43//71 51//71 55//75
f 49//72 48//72 56//76
f 49//73 56//77 53//73
f 48//72 54//72 57//76
f 50//74 55//75 58//35
f 52//74 50//74 59//35
f 60//78 55//75 51//71
f 57//76 56//76 48//72
f 61//77 53//73 56//77
f 62//76 57//76 54//72
f 60//78 58//35 55//75
f 58//35 59//35 50//74
f 63//76 56//76 57//76
f 56//33 63//33 61//33
f 62//33 64//33 57//33
f 65//35 58//35 60//78
f 58//14 66//14 59//14
f 63//33 57//33 64//33
f 64//33 61//33 63//33
f 67//33 64//33 62//33
f 58//18 65//18 66//18
f 68//14 59//14 66//14
f 69//33 61//33 64//33
f 67//14 70//14 64//14
f 71//18 66//18 65//18
f 68//79 66//79 72//80
f 69//18 64//18 73//18
f 74//14 64//14 70//14
f 66//81 71//81 75//82
f 75//80 72//80 66//79
f 74//18 73//18 64//18
f 74//33 70//33 73//33
f 76//82 75//82 71//81
f 72//80 75//80 77//83
f 78//33 73//33 70//33
f 75//82 76//82 79//84
f 79//83 77//83 75//80
f 80//84 79//84 76//82
f 79//83 81//85 77//83
f 79//84 80//84 81//86
f 82//85 77//83 81//85
f 83//86 81//86 80//84
f 81//85 84//87 82//85
f 81//86 83//86 84//88
f 85//87 82//85 84//87
f 86//88 84//88 83//86
f 84//87 87//14 85//87
f 84//88 86//88 87//18
f 88//14 85//87 87//14
f 89//18 87//18 86//88
f 88//35 87//35 90//35
f 89//35 90//35 87//35
